<?xml version="1.0" encoding="UTF-8"?><svg id="Calque_2" xmlns="http://www.w3.org/2000/svg" viewBox="0 0 61.81 90.9"><defs><style>.cls-1,.cls-2{fill:#ed6952;}.cls-2{fill-rule:evenodd;}</style></defs><g id="Calque_1-2"><path class="cls-2" d="m47.13,64.4s-16.33,2.44-30.15-12.04c0,0-.87-.83-2.26-1.73-2.03-1.31-4.62-1.36-6.7-.14-2.08,1.22-4.66,2.97-4.78,8.38,0,0,.33,14.01,3.7,22.55.9,2.22,5.29,4.83,7.67,5.03,7.14.57,24.51,1.69,34.37.34,2.5-.36,4.76-1.68,6.54-4.26.92-1.34,1.56-2.84,1.88-4.43,1.38-6.82,2.55-17.17.6-20.57,0,0-3.96,5.71-10.86,6.87h0Z"/><path class="cls-1" d="m36.78,87.71c-1.88,0-3.89-.03-6.02-.09-6.71-.19-13.02-.64-16.18-.89-1.19-.1-2.93-.79-4.52-1.8-1.72-1.09-2.95-2.33-3.39-3.41-1.76-4.45-2.67-10.37-3.14-14.56-.26-2.37-.41-4.44-.48-5.76-.04-.75-.07-1.34-.08-1.71-.01-.38-.02-.55-.02-.64h0c.06-2.48.61-4.41,1.71-5.92.95-1.3,2.16-2.07,3.21-2.7,2.19-1.28,4.87-1.23,7,.15,1.39.9,2.26,1.73,2.3,1.76,0,0,0,0,0,0,3.13,3.28,6.65,5.94,10.46,7.93,3.05,1.59,6.29,2.74,9.63,3.44,4.56.95,8.41.8,9.82.59,3.49-.59,6.21-2.39,7.87-3.8,1.81-1.53,2.8-2.94,2.81-2.96.06-.08.15-.12.24-.12.1,0,.18.06.23.14.91,1.59,1.24,4.67.99,9.16-.2,3.49-.76,7.72-1.55,11.61-.34,1.63-.99,3.16-1.93,4.53-1.73,2.51-3.99,3.99-6.73,4.38-3.12.43-7.22.64-12.23.64ZM3.51,58.87c0,.31.34,14,3.68,22.45.38.95,1.57,2.13,3.17,3.14,1.52.97,3.16,1.62,4.27,1.71,21.05,1.67,31,.8,34.31.34,2.57-.37,4.71-1.76,6.34-4.14.9-1.31,1.52-2.77,1.84-4.33,1.49-7.34,2.34-16.53.83-19.98-.42.53-1.3,1.57-2.61,2.68-1.72,1.46-4.53,3.32-8.16,3.93,0,0,0,0,0,0-1.43.21-5.36.36-9.99-.59-3.4-.7-6.69-1.88-9.79-3.49-3.87-2.01-7.44-4.72-10.61-8.04-.07-.06-.92-.85-2.21-1.69-1.95-1.26-4.41-1.31-6.41-.14-2.29,1.34-4.53,3.08-4.65,8.14Zm43.62,5.53h0,0Z"/><path class="cls-2" d="m57.65,59.55c.72-.71.94-1.79.55-2.73-.96-2.32-5.81-4.48-13.93-2.18-2.5.71-5.09,1.06-7.68,1.03-5.84-.06-15.72-.47-20.16-4.09,1.17,3.11,10.13,10.37,22.15,12.55.1.02.2.04.3.07,1.49.36,12.36,1.69,18.78-4.66h0Z"/><path class="cls-1" d="m34.07,90.9c-6.51,0-12.98-.41-18.98-1.21-2.96-.4-5.71-1.65-7.95-3.63s-3.83-4.55-4.59-7.43C.81,72.02-.09,64.15,0,56.48c.11-8.24,1.36-15.38,3.62-20.68h-1.17c-.16,0-.28-.13-.28-.28v-2.5c0-2.21,1.8-4,4-4h3.1c-1.1-.53-1.87-1.65-1.87-2.95,0-.94.37-1.82,1.03-2.48.66-.66,1.54-1.03,2.48-1.03h15.65s0,0,0,0c-.05-.08-.06-.18-.02-.27.92-2.05,1.53-3.84,1.73-4.44-.02-.03-.03-.06-.03-.1,0-.02-.26-2.37-1.46-4.52-1.9-1.31-3.14-3.5-3.14-5.98,0-4,3.26-7.26,7.26-7.26s7.26,3.26,7.26,7.26c0,2.46-1.23,4.63-3.1,5.95-1.16,2.05-1.49,3.78-1.57,4.34.03.03.04.07.05.11,0,.02.6,2.31,1.7,4.54.04.09.04.19,0,.27-.02.03-.05.06-.08.09h16.52c1.92,0,3.48,1.56,3.48,3.48h0c0,1.31-.77,2.45-1.89,2.98h3.48c2.01,0,3.64,1.64,3.64,3.65v2.85c0,.16-.13.28-.28.28h-1.02c3.02,12.6,3.51,26.22,1.49,41.63-.43,3.35-2.01,6.48-4.44,8.82-2.44,2.34-5.63,3.79-9,4.08-4.28.37-8.69.56-13.08.56ZM4.19,35.92c-2.26,5.24-3.51,12.34-3.62,20.57-.1,7.62.8,15.43,2.53,22,.73,2.78,2.26,5.25,4.42,7.15,2.16,1.9,4.8,3.11,7.65,3.49,10.01,1.34,21.35,1.57,31.94.65,3.24-.28,6.31-1.67,8.66-3.93,2.34-2.25,3.86-5.27,4.27-8.49,2.01-15.39,1.52-28.98-1.51-41.54-13.79-.02-34.33-.03-54.34.09Zm-1.45-.68h57.11v-2.57c0-1.7-1.38-3.08-3.08-3.08H6.18c-1.9,0-3.44,1.54-3.44,3.44v2.21Zm8.18-12.12c-.79,0-1.53.31-2.08.86-.56.56-.86,1.3-.86,2.08,0,1.49,1.21,2.71,2.71,2.71h41.2c1.51,0,2.73-1.23,2.73-2.73h0c0-1.61-1.31-2.92-2.92-2.92H10.92Zm16.32-.99c2.4.04,5.23.01,7.32-.07-.82-1.76-1.33-3.47-1.5-4.05h-4.24c-.18.55-.74,2.19-1.58,4.12Zm1.54-4.69h4.17c.08-.56.35-1.95,1.19-3.69-.97.49-2.07.76-3.23.76s-2.25-.27-3.22-.75c.73,1.59,1,3.09,1.09,3.68Zm-1.82-4.78s.09.01.13.03c3.87,2.07,6.01.9,7.57.04l.12-.07s.08-.03.13-.03c1.64-1.22,2.7-3.17,2.7-5.37,0-3.69-3-6.7-6.7-6.7s-6.7,3-6.7,6.7c0,2.22,1.08,4.18,2.74,5.4Z"/><path class="cls-2" d="m31.1.28c3.64.14,6.56,3.17,6.56,6.88s-3.05,6.88-6.82,6.88c-.98,0-1.91-.21-2.76-.59.09,0,.17,0,.26,0,3.76,0,6.82-3.08,6.82-6.88,0-2.81-1.67-5.23-4.06-6.3h0Z"/></g></svg>