<?xml version="1.0" encoding="UTF-8"?><svg id="Calque_2" xmlns="http://www.w3.org/2000/svg" viewBox="0 0 44.89 83.04"><defs><style>.cls-1,.cls-2{fill:#cd0b5b;}.cls-2{fill-rule:evenodd;}</style></defs><g id="Calque_1-2"><path class="cls-2" d="m17.34,31.53s1.49.46,3.71.63c.76.06,1.61.08,2.51.03.8-.05,1.64-.16,2.49-.33,1.18-.24,2.39-.62,3.58-1.17.07-.03.1-.11.07-.18-.03-.07-.11-.1-.18-.07-1.19.46-2.4.74-3.56.92-.84.13-1.66.2-2.44.24-.88.05-1.71.06-2.45.04-2.18-.06-3.67-.37-3.67-.37-.07-.02-.15.02-.17.1-.02.07.02.15.1.17h0Z"/><path class="cls-2" d="m23.58,34.91s-1.01.11-2.39.16c-.49.02-1.04.03-1.59.03-.43,0-.88,0-1.32-.02-.45-.01-.89-.03-1.31-.08-1.06-.11-2.01-.34-2.61-.81-.06-.05-.14-.04-.19.01-.05.06-.04.14.01.19.77.72,2.17,1.09,3.69,1.23.31.03.62.05.93.05.47,0,.94,0,1.39-.04,1.89-.13,3.44-.47,3.44-.47.07-.01.12-.08.11-.16-.01-.07-.08-.12-.16-.11h0Z"/><path class="cls-1" d="m22.41,83.04c-.58,0-.94-.02-1.01-.02-.22,0-4.64-.06-8.36-1-.61-.15-1.21-.39-1.76-.69-2.42-1.33-4.47-2.82-6.1-4.45-1.49-1.5-2.68-3.16-3.52-4.93-1.4-2.96-1.91-6.33-1.55-10.29.35-3.86,3.16-9.74,6.4-13.4,2.71-3.06,4.91-6.51,6.55-10.25-.61-.45-.99-1.17-1-1.94-.03-1.64,1.58-2.3,1.64-2.33.38-.15.79-1.47.96-2.67-.18-.18-.34-.37-.48-.55,0,0,0,0,0,0-.88-1.23-.6-2.95.62-3.84.41-.3.88-.47,1.35-.51.09-.93.14-1.87.16-2.79.07-3.88-2.33-7.38-5.97-8.73-.09-.03-.15-.1-.19-.18-.04-.08-.04-.18,0-.26.03-.08.08-.14.15-.18,5.03-2.81,7.87-.42,10.15,1.5,1.3,1.1,2.43,2.05,3.74,1.97,2.73-.17,7.01-2.98,8.73-4.18.98-.69,2.07-1.16,3.24-1.39.21-.04.41-.08.64-.1,3.76-.45,7.24,2.12,7.93,5.84.69,3.73-.75,7.66-4.3,11.68-.59.67-1.23,1.29-1.91,1.87-.66.56-1.29,1.07-1.91,1.56-.89.72-1.73,1.39-2.58,2.16-.6.54-1.03,1.24-1.24,2.02-1.08,3.83.05,7.59,3.57,11.82,2.33,2.8,4.28,6.54,5.35,10.28.5,1.74.74,3.54.7,5.36-.06,2.54-.5,4.95-1.33,7.16-2.18,5.84-7.37,10.09-13.53,11.08-2.15.34-4.04.41-5.14.41Zm-8.74-44.71c-1.66,3.79-3.9,7.28-6.64,10.38-3.16,3.56-5.89,9.27-6.23,13.01-.35,3.84.14,7.09,1.49,9.94,1.71,3.6,4.76,6.57,9.33,9.07.5.28,1.04.49,1.6.63,3.71.94,8.16.98,8.2.98,0,0,.01,0,.02,0,.03,0,2.76.14,6.01-.38,5.92-.95,10.9-5.03,12.99-10.65.8-2.13,1.23-4.46,1.29-6.93.04-1.74-.19-3.48-.67-5.15-1.05-3.65-2.95-7.3-5.22-10.03-1.01-1.22-1.84-2.41-2.48-3.57-.04-.01-.08-.04-.12-.07-1.74-1.48-2.83-3.64-3-5.91-.05-.7-.29-1.21-.73-1.5-.98-.65-2.63-.11-2.64-.1,0,0-.02,0-.03,0-7.55,1.82-11.45.99-13.17.26Zm14.58-1.17c.55,0,1.14.1,1.64.43.62.41.97,1.09,1.03,2.02.11,1.51.67,2.97,1.57,4.17-.91-2.38-1.02-4.68-.36-7.02.25-.9.75-1.71,1.44-2.34.86-.78,1.71-1.46,2.61-2.19.61-.49,1.24-1,1.89-1.55.65-.55,1.27-1.16,1.84-1.8,3.4-3.86,4.8-7.59,4.14-11.11-.62-3.37-3.77-5.69-7.17-5.28-.2.02-.39.06-.58.09-1.08.21-2.09.64-2.98,1.28-2.19,1.53-6.28,4.13-9.08,4.3-.07,0-.13,0-.2,0-1.49,0-2.72-1.04-4.02-2.13-1.14-.96-2.33-1.96-3.81-2.4-1.5-.45-3.12-.24-4.93.64,3.52,1.61,5.8,5.18,5.73,9.1-.02.93-.07,1.86-.16,2.8.7.11,1.36.48,1.81,1.09h0c.07.1.13.2.19.3,2.49.02,8.55-.25,10.2-1.69.02-4.28,1.11-7.44,3.23-9.42,2.39-2.22,5.22-2.11,5.48-2.09.02,0,.03,0,.05,0,2.37,0,3.44,1.47,3.92,2.7.43,1.13.48,2.39.12,3.54-1.25,4.06-3.4,7.28-6.38,9.57-2.32,1.79-4.39,2.4-4.97,2.55,0,0,0,0,0,0-.17.04-.35.02-.51-.04-.4-.16-.67-.44-.78-.82-.3-.99.6-2.33.73-2.5.51-.78.67-1.45.48-1.98-.19-.53-.68-.83-.95-.95-2.32,1.93-10.46,1.83-10.82,1.83-.13,0-.24-.07-.3-.18-.07-.14-.16-.28-.24-.4-.37-.5-.92-.78-1.5-.83-.05.02-.11.03-.17.02-.04,0-.07-.01-.11-.03-.39.02-.78.15-1.11.39-.92.67-1.13,1.96-.47,2.88.15.2.33.39.53.59.08.07.12.18.1.29-.06.5-.42,3-1.41,3.39-.05.02-1.23.51-1.21,1.68.01.68.42,1.31,1.04,1.59,1.55.7,5.29,1.6,12.88-.23.12-.04.8-.25,1.58-.25Zm1.48-11.38c.36.17,1.04.58,1.32,1.35.27.75.08,1.62-.55,2.6,0,0,0,0,0,0-.22.31-.81,1.34-.63,1.92.05.17.17.29.38.38.04.01.07.02.11.01.4-.1,2.45-.68,4.72-2.42,2.86-2.2,4.93-5.31,6.14-9.23.31-1.01.27-2.11-.1-3.09-.59-1.52-1.71-2.28-3.34-2.26,0,0-.02,0-.03,0-.03,0-2.76-.17-4.99,1.92-1.96,1.83-2.97,4.8-3.01,8.83Z"/><path class="cls-2" d="m30.32,44.33c-2.44,5.56-9.63,3.26-11.77.55-.03-.03-.05-.07-.08-.1-2.29-2.46-4.58-4.37-5.8-1.22,0,0-2.38,4-4.99,7.21-3.78,4.64-6.28,10.48-5.12,16.36.71,3.59,1.95,6.49,6.31,9.99,2.14,1.73,4.71,2.86,7.43,3.28,4.43.7,7.89.79,12.21-.06,2.34-.46,4.53-1.51,6.35-3.05,4.1-3.46,5.07-7.84,5.26-12.74.06-1.48-.06-2.96-.35-4.41-.11-.53-.23-1.08-.35-1.59-.41-1.73-1.03-3.41-1.85-4.99-1.79-3.46-3.87-5.63-7.24-9.22h0Zm5,28.15c.18-.19.48-.21.69-.05.21.16.27.45.14.68-.37.63-.96,1.32-1.58,1.96-.4.41-.85.76-1.35,1.05-1.07.61-2.07,1.14-2.9,1.41-.27.08-.56-.06-.66-.32-.1-.26.02-.56.28-.68.18-.08.38-.16.6-.25,1.51-.57,2.84-1.52,3.87-2.77.33-.4.63-.75.9-1.04h0Zm1.72-3.45c.45,0,.82.42.82.94s-.37.94-.82.94-.82-.42-.82-.94.37-.94.82-.94h0Zm-31-8.42c-.05.26-.29.44-.56.42-.26-.02-.47-.23-.49-.5,0-.26,0-.55.03-.85.12-1.41.54-2.79,1.24-4.03.43-.78.86-1.47,1.28-1.98.18-.21.5-.25.73-.08.23.17.28.48.13.72-.11.16-.23.34-.38.53-.97,1.29-1.58,2.81-1.78,4.41-.06.52-.12.97-.2,1.36h0Zm4.09-10.82c.4,0,.72.33.72.74s-.32.74-.72.74-.72-.33-.72-.74.32-.74.72-.74h0Zm5.11-2.46c.64,0,1.15.55,1.15,1.23s-.52,1.23-1.15,1.23-1.15-.55-1.15-1.23.52-1.23,1.15-1.23h0Zm-1.15-3.28c.29,0,.52.29.52.66s-.23.66-.52.66-.52-.29-.52-.66.23-.66.52-.66h0Z"/><path class="cls-1" d="m22.5,81.12c-1.92,0-3.92-.18-6.23-.55-2.75-.42-5.34-1.57-7.51-3.32-2.1-1.68-3.55-3.27-4.56-5.01-.84-1.44-1.38-2.96-1.81-5.08-1.05-5.28.79-11.14,5.15-16.5,2.5-3.08,4.82-6.93,4.97-7.18.4-1.02.92-1.58,1.61-1.72,1.33-.26,2.93,1.24,4.47,2.89.03.04.06.07.09.11,1.26,1.6,4.39,3.11,7.23,2.74,1.96-.25,3.43-1.38,4.25-3.25.02-.05.07-.09.13-.1.06,0,.11,0,.15.05l.33.35c3.13,3.33,5.2,5.54,6.93,8.91.82,1.59,1.45,3.28,1.87,5.02.13.53.25,1.09.35,1.6.3,1.46.41,2.96.36,4.45-.11,2.85-.48,5.07-1.17,6.97-.85,2.33-2.21,4.26-4.15,5.9-1.84,1.55-4.07,2.62-6.43,3.09-2.09.41-4.02.62-6.04.62Zm-8.07-39.03c-.08,0-.16,0-.24.02-.56.11-1.01.6-1.36,1.52,0,0,0,.02-.01.03-.02.04-2.42,4.04-5,7.23-4.3,5.28-6.11,11.04-5.08,16.21.73,3.68,1.99,6.47,6.25,9.89,2.12,1.71,4.66,2.83,7.35,3.24,4.71.75,8.12.73,12.16-.06,2.31-.46,4.48-1.5,6.28-3.02,1.89-1.6,3.22-3.48,4.05-5.76.68-1.86,1.04-4.04,1.15-6.86.06-1.46-.06-2.93-.35-4.37-.1-.51-.23-1.06-.35-1.59-.41-1.72-1.03-3.38-1.84-4.95-1.72-3.33-3.66-5.4-6.88-8.83l-.16-.17c-.89,1.85-2.41,2.96-4.42,3.22-2.96.38-6.22-1.2-7.54-2.87-.02-.03-.05-.06-.07-.09-1.31-1.4-2.78-2.81-3.92-2.81Zm15.75,35.64c-.29,0-.56-.18-.66-.46-.13-.35.03-.74.37-.89.18-.08.38-.16.61-.25,1.48-.56,2.79-1.5,3.8-2.71.32-.38.63-.75.91-1.05,0,0,0,0,0,0,.24-.25.64-.28.92-.07.28.21.36.6.19.9-.33.57-.87,1.24-1.6,1.99-.41.42-.88.79-1.39,1.08-.93.54-2.01,1.13-2.93,1.43-.07.02-.14.03-.21.03Zm5.27-5.12c-.27.29-.58.65-.89,1.03-1.04,1.26-2.41,2.24-3.94,2.82-.23.09-.42.17-.59.24-.17.08-.26.28-.19.46.07.18.26.28.45.22.89-.29,1.99-.9,2.86-1.4.48-.28.93-.62,1.31-1.02.71-.73,1.23-1.38,1.55-1.93.09-.15.04-.35-.1-.46-.14-.11-.34-.09-.47.03Zm1.6-1.51c-.54,0-.99-.5-.99-1.11s.44-1.11.99-1.11.99.5.99,1.11-.44,1.11-.99,1.11Zm0-1.89c-.36,0-.64.35-.64.77s.29.77.64.77.64-.35.64-.77-.29-.77-.64-.77Zm-31.52-8s-.04,0-.05,0c-.35-.03-.62-.31-.64-.66,0-.26,0-.56.03-.87.12-1.45.55-2.83,1.26-4.1.5-.9.91-1.54,1.29-2.01.24-.29.66-.33.96-.11.3.22.37.64.17.95-.11.16-.23.34-.38.54-.95,1.26-1.55,2.76-1.75,4.33-.06.49-.12.97-.2,1.37,0,0,0,0,0,0-.07.32-.36.55-.68.55Zm2.42-7.54c-.1,0-.21.04-.28.13-.36.45-.76,1.07-1.26,1.96-.69,1.23-1.1,2.56-1.22,3.96-.03.3-.03.58-.03.83,0,.18.15.32.33.33.18.01.34-.11.38-.28.08-.39.14-.86.2-1.35.2-1.63.83-3.18,1.81-4.49.15-.2.27-.37.37-.52.1-.16.06-.38-.09-.49-.07-.05-.14-.07-.22-.07Zm-1.91,6.96h0,0Zm4.09-9.17c-.49,0-.89-.41-.89-.91s.4-.91.89-.91.89.41.89.91-.4.91-.89.91Zm0-1.48c-.3,0-.54.25-.54.57s.24.57.54.57.54-.25.54-.57-.24-.57-.54-.57Zm5.11,0c-.73,0-1.32-.63-1.32-1.4s.59-1.4,1.32-1.4,1.32.63,1.32,1.4-.59,1.4-1.32,1.4Zm0-2.46c-.54,0-.98.48-.98,1.06s.44,1.06.98,1.06.98-.48.98-1.06-.44-1.06-.98-1.06Zm-1.15-1.97c-.38,0-.69-.37-.69-.83s.31-.83.69-.83.69.37.69.83-.31.83-.69.83Zm0-1.31c-.19,0-.35.22-.35.49s.16.49.35.49.35-.22.35-.49-.16-.49-.35-.49Z"/><path class="cls-2" d="m18.83,44.98s3.44,1.21,6.74-.85c.05-.03.1-.07.15-.1.38-.28,2.01-1.39,3.5-1.09.01,0,.02,0,.03,0,.11.03.64.22.98.81.23.42.24.93,0,1.35-.4.73-1.42,1.96-3.99,2.61-.38.1-.78.14-1.17.11-1.25-.09-4.18-.54-6.25-2.86h0Z"/><path class="cls-2" d="m20,10.47s1.18,5.49,1.26,5.98l2.08,1.27-.21-6.9-3.13-.35h0Z"/><path class="cls-1" d="m23.34,18.01c-.05,0-.1-.01-.15-.04l-2.08-1.27c-.07-.04-.12-.11-.13-.19-.08-.48-1.25-5.92-1.26-5.97-.02-.09,0-.18.07-.25.06-.07.15-.1.24-.09l3.13.35c.14.02.25.13.25.27l.21,6.9c0,.1-.05.2-.14.25-.04.03-.09.04-.14.04Zm-1.82-1.72l1.53.93-.19-6.14-2.5-.28c.25,1.18,1,4.68,1.16,5.48Z"/><polygon class="cls-2" points="27.49 10.45 24.05 10.83 24.2 17.81 25.57 17.48 27.49 10.45 27.49 10.45"/><path class="cls-1" d="m24.2,18.1c-.06,0-.12-.02-.17-.06-.07-.05-.11-.13-.11-.22l-.15-6.99c0-.15.11-.27.25-.29l3.44-.38c.09-.01.18.03.25.1.06.07.08.17.06.26-.02.07-1.89,6.9-1.92,7.03-.03.1-.1.18-.21.2l-1.37.33s-.04,0-.07,0Zm.14-7.02l.14,6.38.86-.21c.11-.42.5-1.81,1.77-6.47l-2.77.3Z"/><path class="cls-2" d="m16.73,8.97l1.6,5.22s1.19.7,1.92,1.47c-.27-1.22-1.23-5.4-1.23-5.4l-2.29-1.29h0Z"/><path class="cls-1" d="m20.25,15.95c-.08,0-.15-.03-.2-.09-.28-.29-.82-.77-1.81-1.39-.08-.05-.14-.09-.17-.19l-1.6-5.22c-.03-.11,0-.23.09-.3.09-.07.21-.08.32-.03l2.29,1.29c.07.04.12.1.14.18,0,.04.97,4.2,1.23,5.4.03.12-.03.25-.14.31-.04.02-.09.03-.13.03Zm-1.68-1.93c.51.32.91.61,1.22.85-.33-1.47-.88-3.85-1.01-4.41l-1.56-.88,1.36,4.45Z"/><polygon class="cls-2" points="28.46 10.29 26.39 17.33 28.89 16 31.18 9.61 28.46 10.29 28.46 10.29"/><path class="cls-1" d="m26.39,17.61c-.06,0-.13-.02-.18-.06-.09-.07-.12-.19-.09-.3l2.08-7.04c.03-.1.1-.17.2-.19l2.72-.68c.1-.03.21,0,.28.08.07.08.09.19.06.28l-2.29,6.39c-.02.07-.07.12-.13.15l-2.51,1.33s-.09.03-.13.03Zm2.3-7.09l-1.84,6.24,1.82-.96,2.07-5.79-2.05.51Z"/><path class="cls-2" d="m14.01,6.34l1.68,1.93,1.66,5.43-.89-.43c-.3-.98-.99-3.34-2.44-6.94h0Z"/><path class="cls-1" d="m17.35,13.98s-.08,0-.12-.03l-.89-.43c-.07-.03-.13-.1-.15-.17l-.04-.14c-.33-1.09-1.01-3.35-2.39-6.77-.05-.13,0-.27.11-.35.12-.07.27-.05.36.06l1.68,1.93s.05.06.06.1l1.66,5.43c.03.11,0,.22-.09.3-.05.04-.12.07-.18.07Zm-.66-.91l.2.1-1.45-4.76-.57-.65c.99,2.6,1.53,4.37,1.81,5.29v.03Z"/><path class="cls-2" d="m33.69,7.25c-1.33,3.54-2.42,6.56-2.86,7.7l-.91.57,2.26-6.31,1.51-1.96h0Z"/><path class="cls-1" d="m29.92,15.8c-.06,0-.13-.02-.18-.06-.09-.08-.13-.2-.09-.31l2.26-6.31s.02-.05.04-.08l1.51-1.96c.09-.11.24-.14.36-.07.12.07.18.21.13.35-.73,1.94-1.38,3.71-1.91,5.14-.42,1.15-.76,2.05-.95,2.57-.02.06-.06.1-.11.14l-.91.57s-.1.04-.15.04Zm2.51-6.46l-1.97,5.51.15-.09c.2-.52.52-1.39.92-2.47.36-.98.78-2.13,1.25-3.39l-.34.45Z"/><polygon class="cls-2" points="24.06 4.14 24.06 9.9 27.57 9.51 26.44 4.02 24.06 4.14 24.06 4.14"/><path class="cls-1" d="m24.06,10.18c-.07,0-.14-.03-.19-.07-.06-.05-.09-.13-.09-.21v-5.76c0-.15.13-.27.28-.28l2.38-.12c.14,0,.26.09.29.22l1.13,5.5c.02.08,0,.16-.05.22-.05.06-.12.11-.2.11l-3.52.39s-.02,0-.03,0Zm.29-5.77v5.18s2.89-.32,2.89-.32l-1.02-4.96-1.87.1Z"/><polygon class="cls-2" points="19.9 9.53 23.13 9.9 23.14 4.14 21.01 4.07 19.9 9.53 19.9 9.53"/><path class="cls-1" d="m23.13,10.18s-.02,0-.03,0l-3.23-.36c-.08,0-.15-.05-.2-.11-.05-.06-.06-.14-.05-.22l1.11-5.46c.03-.13.15-.23.29-.23l2.13.07c.15,0,.27.13.27.28v5.75c0,.08-.04.16-.1.21-.05.05-.12.07-.19.07Zm-2.9-.89l2.61.29v-5.16s-1.61-.05-1.61-.05l-1,4.93Z"/><path class="cls-2" d="m29.25,3.36l-1.89.57,1.11,5.4,2.69-.68-.97-2.69c-.31-.85-.62-1.71-.93-2.56v-.04h-.01Z"/><path class="cls-1" d="m28.48,9.61c-.05,0-.1-.01-.15-.04-.07-.04-.11-.11-.13-.18l-1.11-5.4c-.03-.14.05-.28.19-.33l1.89-.57c.14-.04.3.03.35.17v.04s1.91,5.26,1.91,5.26c.03.07.02.16-.02.23-.04.07-.1.12-.18.14l-2.69.68s-.05,0-.07,0Zm-.78-5.48l1,4.86,2.1-.53-1.72-4.75-1.39.42Z"/><polygon class="cls-2" points="16.69 7.98 19.02 9.22 20.1 3.92 18.33 3.39 16.69 7.98 16.69 7.98"/><path class="cls-1" d="m19.02,9.5s-.09-.01-.13-.03l-2.33-1.24c-.12-.07-.18-.21-.13-.34l1.65-4.59c.05-.14.2-.22.35-.18l1.77.52c.14.04.23.18.2.33l-1.08,5.31c-.02.09-.08.16-.16.2-.04.02-.08.03-.12.03Zm-1.98-1.65l1.78.95.96-4.68-1.27-.38-1.47,4.11Z"/><polygon class="cls-2" points="29.94 2.88 31.89 8.21 33.6 5.79 30.92 2.12 29.94 2.88 29.94 2.88"/><path class="cls-1" d="m31.89,8.49s-.02,0-.04,0c-.1-.01-.19-.08-.23-.18l-1.96-5.33c-.04-.12,0-.24.09-.32l.98-.76c.06-.05.14-.07.21-.06.08.01.14.05.19.11l2.68,3.67c.07.1.07.23,0,.33l-1.7,2.42c-.05.08-.14.12-.23.12Zm-1.62-5.51l1.7,4.63,1.28-1.82-2.39-3.27-.59.46Z"/><polygon class="cls-2" points="15.33 3.62 16.56 1.78 17.56 2.99 15.95 7.31 14.21 5.34 15.33 3.62 15.33 3.62"/><path class="cls-1" d="m15.95,7.59c-.08,0-.16-.03-.21-.09l-1.74-1.96c-.08-.09-.09-.23-.03-.34l1.12-1.72s0,0,0,0l1.23-1.84c.05-.07.13-.12.22-.12.09,0,.17.03.23.1l.99,1.21c.06.08.08.18.05.28l-1.61,4.32c-.03.09-.12.16-.21.18-.02,0-.03,0-.05,0Zm-1.39-2.27l1.28,1.45,1.39-3.72-.65-.79-1.02,1.52-1,1.54Z"/><path class="cls-2" d="m23.18.94c-.38.48-1.17,1.54-1.73,2.28h1.69s.04-2.28.04-2.28h0Z"/><path class="cls-1" d="m21.45,3.51c-.11,0-.2-.06-.25-.16-.05-.1-.04-.21.03-.3.17-.23.37-.49.57-.75.45-.59.91-1.2,1.17-1.53.07-.1.2-.13.32-.09.11.04.19.15.19.27l-.04,2.27c0,.15-.13.28-.28.28h-1.69s0,0,0,0Zm1.44-1.71c-.2.26-.42.56-.64.85-.08.1-.15.2-.22.3h.85s.02-1.15.02-1.15Z"/><path class="cls-2" d="m24.07.83v2.38s2.05-.02,2.05-.02c-.83-1.07-1.68-1.92-2.05-2.36h0Z"/><path class="cls-1" d="m24.06,3.5c-.07,0-.15-.03-.2-.08-.05-.05-.08-.13-.08-.2V.83c0-.12.08-.22.19-.26.11-.04.24,0,.31.09.12.15.3.34.51.57.42.46.99,1.08,1.55,1.8.07.08.08.2.03.3s-.14.16-.25.16l-2.05.02h0Zm.28-1.93v1.36s1.19-.01,1.19-.01c-.42-.51-.84-.97-1.16-1.31-.01-.01-.02-.02-.03-.03Z"/><path class="cls-2" d="m24.98.62c.44.54,1.32,1.5,2.04,2.44h.07s1.72-.48,1.72-.48c-1.19-.64-2.67-1.29-3.83-1.96h0Z"/><path class="cls-1" d="m27.01,3.34c-.09,0-.17-.04-.22-.11-.45-.59-.98-1.21-1.41-1.7-.25-.29-.46-.54-.62-.73-.09-.11-.08-.26,0-.36.09-.1.24-.13.36-.06.64.37,1.41.75,2.14,1.11.57.28,1.16.57,1.68.85.1.05.16.17.15.28s-.09.21-.21.24l-1.72.48s-.04,0-.06,0h-.07s0,0-.01,0Zm-.86-1.77c.32.37.66.78.98,1.18l.91-.25c-.34-.17-.69-.34-1.03-.51-.29-.14-.57-.28-.86-.42Z"/><path class="cls-2" d="m22.39.72c-.8.41-2.63,1.48-3.65,2.07,0,0,1.75.35,1.75.35.63-.79,1.48-1.92,1.9-2.42h0Z"/><path class="cls-1" d="m20.52,3.42c-.07,0-.18-.02-.36-.06-.16-.03-.38-.08-.6-.12-.44-.09-.87-.18-.87-.18-.11-.02-.2-.11-.22-.23-.02-.12.04-.23.14-.29l.45-.26c1.06-.62,2.52-1.46,3.21-1.82.12-.06.26-.03.35.07s.08.25,0,.36c-.23.28-.59.75-.98,1.25-.31.4-.63.82-.91,1.17,0,0,0,.01-.01.02-.06.06-.1.09-.18.09Zm-.99-.76c.34.07.67.13.85.17.25-.32.53-.68.8-1.03.04-.06.09-.11.13-.17-.58.33-1.22.7-1.78,1.03Z"/><path class="cls-2" d="m25.58.27c1.24.53,2.92,1.41,3.99,2.03h0s.91-.72.91-.72c-.83-.48-1.27-.72-2.39-1.26-.61-.02-1.78-.04-2.51-.05h0Z"/><path class="cls-1" d="m29.57,2.44s-.05,0-.07-.02c-1.02-.59-2.7-1.48-3.98-2.02-.06-.03-.1-.09-.08-.16.01-.07.07-.11.14-.11h0c.72,0,1.9.03,2.51.05.02,0,.04,0,.06.01,1.11.53,1.56.78,2.4,1.26.04.02.07.07.07.11s-.02.09-.05.12l-.91.72s-.03.02-.05.02c-.01,0-.03,0-.04,0Zm-3.31-2.02c1.13.52,2.43,1.21,3.3,1.71l.67-.53c-.73-.42-1.17-.66-2.17-1.13-.44-.01-1.16-.03-1.79-.04Z"/><path class="cls-2" d="m21.45.38c-.52.02-1.03.03-1.48.03-1.27.37-2.17.68-2.72.89l.83.94c1.12-.68,2.41-1.37,3.37-1.87h0Z"/><path class="cls-1" d="m18.08,2.53c-.08,0-.16-.03-.21-.1l-.83-.94c-.06-.07-.08-.16-.06-.25s.09-.16.17-.2c.53-.2,1.44-.52,2.75-.9.03,0,.05-.01.08-.01.48,0,1.04-.02,1.47-.03.13,0,.25.08.28.21.03.13-.03.26-.14.32-.91.47-2.22,1.17-3.36,1.86-.05.03-.1.04-.15.04Zm-.35-1.1l.4.46c.7-.41,1.44-.83,2.12-1.19-.08,0-.16,0-.24,0-.99.29-1.75.54-2.28.73Z"/><path class="cls-2" d="m21.81.12l3.55.02s-.1.06-.05.17c-.35-.32-.83-.07-.79.32-.36-.46-.79-.33-.92.11-.11-.31-.47-.41-.77-.11.04-.25-.08-.31-.22-.36-.04-.02-.09-.03-.14-.03-.16,0-.36.06-.53.21.07-.17-.04-.25-.13-.32h0Z"/><path class="cls-1" d="m23.6.81s-.07-.02-.08-.06c-.04-.12-.13-.2-.24-.23-.13-.03-.28.03-.4.15-.03.03-.06.03-.1.02s-.05-.05-.04-.09c.03-.19-.04-.23-.16-.27-.04-.01-.07-.02-.11-.02-.08,0-.28.02-.48.19-.03.02-.07.03-.1,0-.03-.02-.04-.06-.03-.1.04-.1,0-.14-.08-.21l-.02-.02s-.04-.06-.02-.09c.01-.03.04-.05.08-.05h0l3.55.02s.07.02.08.06,0,.07-.04.09c-.04.02-.02.05-.02.06.02.04,0,.08-.03.1-.03.02-.08.02-.1,0-.17-.15-.35-.14-.47-.09-.13.06-.2.19-.18.34,0,.04-.02.07-.05.08-.03.01-.07,0-.1-.03-.15-.19-.31-.28-.47-.25-.14.03-.25.15-.31.33-.01.03-.04.06-.08.06h0Zm-.38-.45s.07,0,.11.01c.11.02.2.08.27.17.09-.15.22-.25.37-.28.17-.03.34.03.5.17.02-.08.07-.16.13-.22h-1.9c.08.03.19.09.22.24.1-.06.2-.09.31-.09Zm-1.21-.15s.02.05.03.07c.05-.03.1-.05.16-.07h-.19Z"/><path class="cls-2" d="m21.81.03s-.07.02-.08.05c-.01.03,0,.07.02.09.07.06.16.1.11.23-.01.04,0,.08.03.1.03.02.07.02.1,0,.15-.13.33-.19.48-.19.04,0,.08,0,.11.02,0,0,0,0,0,0,.06.02.12.04.15.1.02.04.02.09.01.17,0,.04.01.07.04.09.03.02.07,0,.1-.02.13-.13.27-.18.39-.15.11.02.21.11.25.23.01.03.04.06.08.06.04,0,.07-.02.08-.06.06-.19.17-.31.31-.33.15-.03.31.05.46.25.02.03.06.04.1.03.03-.01.06-.05.05-.08-.03-.32.36-.51.65-.25.03.03.07.03.1,0,.03-.02.04-.07.03-.1-.02-.04.02-.06.02-.06.03-.02.05-.06.04-.09,0-.04-.04-.06-.08-.06l-3.55-.02h0Zm.88.17h1.9c-.06.07-.11.14-.13.22-.17-.15-.34-.2-.49-.17-.15.03-.28.12-.37.28-.07-.09-.17-.15-.29-.18-.12-.02-.26,0-.39.09,0-.03-.02-.06-.03-.09-.04-.08-.11-.12-.19-.16h0Zm-.5,0c-.05.02-.11.04-.16.07,0-.03-.02-.05-.03-.07h.19Z"/><path class="cls-1" d="m23.6.84s-.09-.03-.11-.08c-.04-.11-.12-.19-.22-.21-.12-.02-.24.03-.36.14-.04.04-.09.04-.13.02-.04-.02-.07-.07-.06-.12.01-.07,0-.12-.01-.15-.02-.04-.07-.06-.12-.08,0,0,0,0,0,0-.03-.01-.07-.02-.1-.02-.16,0-.33.07-.46.18-.04.04-.1.04-.14,0-.04-.03-.06-.09-.04-.14.03-.08,0-.12-.07-.17-.01,0-.02-.02-.03-.02-.04-.03-.05-.08-.03-.13.02-.05.06-.08.11-.08h0l3.55.02c.05,0,.1.04.11.09.01.05,0,.1-.05.13,0,0,0,.02,0,.02.02.05,0,.11-.04.14-.04.03-.11.03-.15,0-.15-.14-.32-.13-.43-.08-.11.06-.18.17-.17.3,0,.05-.02.1-.07.12-.05.02-.1,0-.13-.04-.14-.18-.29-.26-.43-.24-.13.02-.23.14-.29.31-.01.05-.06.08-.11.08h0Zm-.39-.36s.04,0,.06,0c.13.02.23.12.28.25,0,.02.03.03.05.03.02,0,.04-.01.05-.03.06-.2.19-.33.34-.36.17-.03.34.07.5.27.01.02.04.02.06.02.02,0,.03-.03.03-.05-.02-.16.06-.3.2-.37.13-.06.33-.07.51.09.02.02.04.02.06,0,.02-.01.03-.04.02-.06-.02-.05,0-.09.03-.1.02-.01.03-.03.02-.05,0-.02-.02-.04-.05-.04l-3.55-.02h0s-.04.01-.05.03c0,.02,0,.04.01.05,0,0,.02.01.03.02.06.05.14.11.09.25,0,.02,0,.04.02.06.02.01.04.01.06,0,.14-.12.32-.19.5-.2.04,0,.08,0,.12.02.07.02.13.05.17.12.02.05.03.11.02.19,0,.02,0,.04.03.05.02,0,.04,0,.06,0,.11-.11.23-.17.35-.17Zm.38.09s-.02,0-.03-.01c-.07-.09-.16-.14-.27-.16-.12-.02-.25,0-.37.08,0,0-.02,0-.03,0-.01,0-.02-.01-.02-.02,0-.03-.01-.05-.03-.08-.03-.06-.08-.11-.17-.14-.01,0-.02-.02-.02-.04,0-.02.02-.03.03-.03h1.9s.03.02.03.03c0,.01,0,.03,0,.04-.06.06-.1.12-.13.2,0,.01-.01.02-.02.02-.01,0-.02,0-.03,0-.15-.13-.31-.19-.47-.17-.14.02-.27.12-.35.27,0,0-.02.02-.03.02,0,0,0,0,0,0Zm-.38-.25s.06,0,.09,0c.11.02.2.07.28.15.08-.12.18-.2.29-.24h-1.06s.07.06.09.1c0,.02.02.03.02.05.09-.05.19-.08.28-.08Zm1.01-.08c.08.03.15.07.22.13.02-.04.04-.09.07-.12h-.3Zm-2.18.06s0,0-.01,0c0,0-.02-.01-.02-.02,0-.02-.01-.04-.03-.06,0-.01,0-.02,0-.03,0-.01.02-.02.03-.02h.19s.03.01.03.03c0,.02,0,.03-.02.04-.05.02-.1.04-.15.07,0,0-.01,0-.02,0Z"/></g></svg>