<?xml version="1.0" encoding="UTF-8"?><svg id="Calque_2" xmlns="http://www.w3.org/2000/svg" viewBox="0 0 41.04 70.83"><defs><style>.cls-1,.cls-2{fill:#f4c208;}.cls-2{fill-rule:evenodd;}</style></defs><g id="Calque_1-2"><path class="cls-1" d="m39.1,70.83H2.19c-1.21,0-2.19-.98-2.19-2.19v-11.06c0-8.09,2.31-15.97,6.67-22.78l4.17-6.5c1.33-2.08,2.03-4.48,2.03-6.95v-2.74h-4.52c-1.12,0-2.03-.91-2.03-2.03v-2.95c0-.45.17-.87.49-1.19s.74-.49,1.19-.49h24.75c.53,0,1.03.21,1.4.58.37.37.58.87.58,1.4v3.2c0,.82-.66,1.48-1.48,1.48h-5.33v4.46c0,1.34.39,2.64,1.12,3.76l5.97,9.14c3.95,6.04,6.04,13.05,6.04,20.27v12.64c0,.52-.2,1-.57,1.37-.37.37-.85.57-1.37.57ZM13.44,18.62v2.74c0,2.57-.73,5.08-2.12,7.25l-4.17,6.5C2.84,41.83.56,49.6.56,57.58v11.06c0,.89.73,1.62,1.62,1.62h36.92c.37,0,.71-.14.97-.4.26-.26.4-.6.4-.97v-12.64c0-7.11-2.06-14.01-5.94-19.96l-5.97-9.14c-.79-1.21-1.21-2.62-1.21-4.07v-4.46h-13.91Zm14.19-.56h5.61c.51,0,.92-.41.92-.92v-3.2c0-.38-.15-.73-.42-1-.27-.27-.62-.42-1-.42H7.99c-.3,0-.58.12-.79.33-.21.21-.33.49-.33.79v2.95c0,.81.66,1.47,1.47,1.47h19.28Z"/><path class="cls-2" d="m13.23,32.06s.37-5.1,4.04-6.02c.63-.16,1.29-.08,1.87.23.64.35,1.26,1,.78,2.18,0,0-.42.81-1.59,1.35-.45.21-.95.33-1.45.34-.81.02-2.54.28-3.65,1.91h0Z"/><path class="cls-1" d="m13.23,32.34s-.06,0-.09-.02c-.12-.04-.2-.16-.19-.29,0-.05.1-1.33.66-2.75.76-1.91,2-3.12,3.59-3.52.7-.18,1.43-.08,2.07.26,1.03.55,1.35,1.45.91,2.54,0,0,0,.02-.01.02-.02.04-.48.9-1.73,1.48-.49.23-1.02.35-1.56.36-.67.02-2.36.22-3.42,1.79-.05.08-.14.12-.23.12Zm4.68-6.09c-.19,0-.38.02-.57.07-2.49.62-3.38,3.33-3.68,4.81,1.16-1.08,2.58-1.24,3.21-1.26.46,0,.91-.11,1.33-.31,1-.46,1.41-1.13,1.46-1.22.32-.81.11-1.4-.66-1.81-.34-.18-.72-.28-1.1-.28Z"/><path class="cls-2" d="m16.04,33.74c-.72-.43-1.61-.43-2.33,0-2.91,1.74-12.61,9.13-10.46,29.41.27,2.57,2.1,4.7,4.6,5.35,0,0,0,0,0,0,.84.22,1.72.33,2.59.32,4.49-.04,21.49-.21,22.13-.22.01,0,.03,0,.04,0,.34-.03,4.78-.51,5.22-5.83,0,0,1.58-12.41-4.04-22.37,0,0-5.45,5.41-12.36,5.17-2.47-.09-4.53-1.92-4.91-4.37-.12-.83-.11-1.8.11-2.95,0,0,1.47-3.28-.59-4.51h0Zm-5.49,26.95c-1.12.33-2.31-.35-2.66-1.51-.34-1.17-.08-3.97,1.04-4.3,1.12-.33.67,1.37,1.01,2.54.34,1.17,1.73,2.94.61,3.27h0Zm-.39-9.63c-.18.34-.54.55-.93.55-.39,0-.74-.22-.92-.57-.25-.5-.51-1.2-.56-2.09,0-.07,0-.14-.02-.21-.1-1.16-.35-6.8,4.05-9.86.25-.17.56-.22.85-.13.29.09.52.3.64.58.13.31.17.74.01,1.34-.02.08-.04.15-.05.23-.08.33-1.05,4.67-2.24,7.37-.25.57-.42,1.17-.52,1.78-.05.32-.14.69-.31,1.02h0Z"/><path class="cls-1" d="m10.35,68.96c-.85,0-1.7-.11-2.53-.32-.01,0-.03,0-.04-.02-1.24-.33-2.33-1.02-3.17-1.99-.84-.98-1.36-2.18-1.5-3.47-2.16-20.29,7.51-27.75,10.52-29.55.76-.45,1.71-.45,2.47,0,0,0,0,0,0,0,.89.53,1.29,1.52,1.14,2.85-.1.92-.43,1.7-.48,1.82-.2,1.04-.24,2.01-.11,2.88.36,2.38,2.37,4.16,4.77,4.25,1.95.07,5.04-.3,8.69-2.47,2.19-1.3,3.55-2.65,3.57-2.66.03-.03.07-.05.12-.04.04,0,.08.03.1.07,2.92,5.16,3.87,11,4.15,14.98.31,4.31-.08,7.45-.09,7.48-.19,2.23-1.12,3.97-2.71,5-1.22.8-2.41.93-2.64.95-.02,0-.03,0-.05,0l-1.8.02c-4.61.05-16.65.17-20.32.2-.03,0-.07,0-.1,0Zm-2.42-.59c.82.21,1.67.31,2.52.31,3.67-.04,15.71-.16,20.32-.2l1.8-.02s.02,0,.03,0c.13-.01,1.32-.13,2.5-.91,1.53-1,2.4-2.62,2.59-4.8,0-.04.39-3.15.09-7.44-.28-3.91-1.2-9.62-4.02-14.69-.4.37-1.66,1.49-3.48,2.57-2.05,1.22-5.25,2.64-8.85,2.51-2.54-.09-4.66-1.98-5.04-4.49-.14-.92-.1-1.92.12-3,0-.01,0-.02,0-.03.01-.03,1.39-3.18-.53-4.33-.67-.4-1.51-.4-2.19,0-2.98,1.78-12.53,9.15-10.39,29.28.26,2.49,2.07,4.59,4.49,5.23.01,0,.03,0,.04.02Zm-.04,0s0,0,0,0c0,0,0,0,0,0Zm2.08-7.45c-.99,0-1.91-.67-2.21-1.7-.18-.62-.2-1.64-.03-2.53.12-.63.42-1.73,1.17-1.95.27-.08.47-.06.64.05.32.23.35.76.39,1.38.02.41.05.83.16,1.2.1.33.29.72.47,1.1.37.77.72,1.49.51,1.97-.08.18-.24.31-.47.38h0c-.21.06-.41.09-.62.09Zm.58-.22h0,0Zm-1.36-5.72c-.06,0-.13.01-.22.04-.44.13-.79.76-.97,1.73-.15.84-.14,1.83.03,2.4.32,1.09,1.44,1.73,2.48,1.42h0c.15-.04.24-.12.29-.22.16-.35-.19-1.09-.51-1.73-.19-.39-.38-.8-.49-1.15-.12-.4-.15-.86-.17-1.26-.03-.53-.06-1.02-.27-1.17-.05-.03-.11-.05-.18-.05Zm.05-3.22s0,0-.01,0c-.44,0-.84-.25-1.05-.64-.34-.67-.53-1.39-.57-2.15,0-.07,0-.14-.02-.2-.1-1.12-.38-6.87,4.11-9.99.29-.2.64-.25.97-.15.33.1.6.34.73.66.16.38.16.86.02,1.43-.02.07-.04.15-.05.22,0,.03-.02.09-.04.17-.92,3.92-1.71,6.09-2.21,7.23-.24.56-.41,1.14-.51,1.74-.06.4-.17.77-.33,1.06h0c-.21.39-.61.63-1.05.63Zm3.11-12.91c-.17,0-.34.05-.49.15-1.83,1.27-3.06,3.14-3.66,5.56-.48,1.96-.38,3.69-.33,4.17,0,.07.01.14.02.22.04.72.22,1.41.54,2.04.15.3.46.49.8.49.34,0,.65-.18.81-.48.14-.26.24-.6.3-.97.1-.63.27-1.24.53-1.81.49-1.12,1.27-3.28,2.19-7.18.02-.08.03-.14.04-.17.02-.07.03-.15.05-.23.13-.51.13-.93,0-1.25-.1-.24-.3-.42-.55-.5-.08-.02-.16-.04-.25-.04Zm-2.18,12.22h0,0Z"/><path class="cls-2" d="m16.59,40.48s3.13,7.54,10.33-.5c.64-.71,1.27-1.29,2.25-1.72.38-.17.79-.28,1.2-.33.51-.07.94-.05,1.57.11.26.07.52.17.76.31.53.31.9.74,1.13,1.54.14.47.06.98-.22,1.39-.4.58-1.22,1.27-2.71,2.12-3.5,2.13-13.06,5.63-14.3-2.93h0Z"/><path class="cls-2" d="m16.59,40.48s3.13,7.54,10.33-.5c.64-.71,1.27-1.29,2.25-1.72.38-.17.79-.28,1.2-.33.51-.07.94-.05,1.57.11.26.07.52.17.76.31.53.31.9.74,1.13,1.54.14.47.06.98-.22,1.39-.4.58-1.22,1.27-2.71,2.12-3.5,2.13-13.06,5.63-14.3-2.93h0Zm.67,1.6c.62.77,1.57,1.6,2.87,1.83,1.69.3,4.02-.41,7-3.74.61-.68,1.22-1.24,2.15-1.65,0,0,0,0,0,0,.36-.16.73-.26,1.12-.31,0,0,0,0,0,0,.48-.06.87-.04,1.46.11.24.06.47.16.68.28,0,0,0,0,0,0,.47.27.79.66,1,1.38,0,0,0,0,0,0,.12.39.05.81-.18,1.15,0,0,0,0,0,0-.38.56-1.18,1.21-2.61,2.03,0,0,0,0,0,0-1.72,1.05-4.93,2.43-7.86,2.5-1.43.03-2.79-.24-3.86-1.05-.76-.57-1.37-1.39-1.77-2.54h0Z"/><path class="cls-2" d="m28.98,1.64c.09-.33-.02-.68-.3-.94-.28-.26-.7-.42-1.14-.42h-14.94c-.44,0-.85.15-1.12.42-.27.26-.38.61-.29.94.89,3.13,3,10.6,3,10.6l11.91-.08s2.02-7.4,2.87-10.51h0Z"/><path class="cls-1" d="m14.2,12.51c-.13,0-.24-.08-.27-.2L10.93,1.71c-.12-.43.01-.88.36-1.22.33-.31.81-.49,1.32-.49h14.94c.51,0,1,.18,1.33.49.35.33.49.79.37,1.22l-2.87,10.51c-.03.12-.14.21-.27.21l-11.91.08h0Zm11.91-.36h0,0ZM12.61.56c-.36,0-.71.13-.93.34-.2.19-.27.43-.21.66l2.95,10.39,11.48-.07,2.81-10.31h0c.06-.23-.02-.47-.22-.66-.22-.21-.58-.34-.94-.34h-14.94Z"/></g></svg>