<?xml version="1.0" encoding="UTF-8"?><svg id="Calque_2" xmlns="http://www.w3.org/2000/svg" viewBox="0 0 40.7 72.42"><defs><style>.cls-1,.cls-2{fill:#654a8e;}.cls-2{fill-rule:evenodd;}</style></defs><g id="Calque_1-2"><path class="cls-2" d="m19.62,35.49c-.06-.1-.05-.24.01-.34.06-.1.18-.14.28-.09.54.22,1.2.71.94,1.76-.02.11-.1.18-.19.2-.09.02-.18-.03-.24-.12-.22-.39-.55-.97-.8-1.41h0Z"/><path class="cls-1" d="m20.61,37.37c-.21,0-.4-.11-.51-.3-.22-.39-.55-.97-.8-1.41h0c-.12-.22-.12-.5.02-.71.16-.24.45-.33.7-.23.97.4,1.39,1.19,1.15,2.17-.06.24-.24.42-.47.46-.03,0-.07,0-.1,0Zm-.11-.64s0,0,0,0c0,0,0,0,0,0Zm.22-.01s0,0,0,0h0Zm-.68-1.19c.16.29.34.61.5.89.01-.27-.07-.62-.5-.89Z"/><path class="cls-2" d="m18.56,30.29c.08-.14.08-.33-.02-.47-.09-.14-.25-.19-.39-.13-.76.31-1.69,1-1.32,2.47.03.15.14.26.27.28.13.02.26-.04.33-.17.31-.55.77-1.37,1.12-1.98h0Z"/><path class="cls-1" d="m17.16,32.94s-.1,0-.15-.01c-.32-.06-.59-.32-.67-.66-.34-1.37.25-2.49,1.62-3.05.36-.15.77-.02.99.32.2.29.21.69.04.99l-.04.07c-.34.61-.78,1.38-1.08,1.91-.15.27-.42.43-.71.43Zm.16-.91s0,0,0,0c0,0,0,0,0,0Zm.64-1.69c-.61.38-.72.88-.71,1.25.22-.4.48-.85.71-1.25Zm.17-.3s0,0,0,0h0Z"/><path class="cls-1" d="m12.14,72.42c-2.9,0-5.67-1.27-7.79-3.57-1.74-1.9-2.98-3.97-3.68-6.15-.6-1.88-.8-3.85-.6-5.86.36-3.58,1.98-6.69,3.37-8.4.11-.14.22-.28.33-.43.79-1.14,1.56-2.08,2.2-2.84,1.4-1.68,2.7-3.5,3.86-5.41.06-.09.11-.18.16-.27,1.61-2.65,2.51-5.76,2.59-9.01.08-3.25-.66-6.42-2.13-9.17-.34-.63-.72-1.28-1.15-1.99-.08-.14-.04-.32.1-.4.14-.08.32-.04.4.1.44.72.82,1.38,1.17,2.02,1.53,2.84,2.29,6.12,2.2,9.47-.08,3.35-1.01,6.57-2.68,9.3-.05.09-.11.18-.17.27-1.18,1.93-2.49,3.78-3.91,5.48-.63.76-1.39,1.69-2.17,2.8-.11.16-.23.32-.35.47-1.34,1.65-2.9,4.64-3.24,8.09-.19,1.93,0,3.82.58,5.63.67,2.1,1.87,4.1,3.55,5.93,2.03,2.2,4.67,3.4,7.44,3.38,5.03-.04,13.92-.11,16.89-.14.64,0,1.28-.18,1.86-.5,0,0,0,0,.01,0,8.43-4.24,9.2-11.83,9.13-14.89-.08-4.23-1.75-8.17-4.58-10.8-.91-.85-1.98-1.86-3.06-2.81-1.28-1.11-2.38-2.46-3.27-3.99-1.49-2.56-1.78-4.49-2.09-8.27-.28-3.38.64-7.75,2.74-12.98,1.56-3.89,3.23-6.83,3.24-6.86.08-.14.26-.19.4-.11.14.08.19.26.11.4-.02.03-1.67,2.94-3.21,6.79-1.42,3.54-3.04,8.62-2.7,12.71.31,3.77.58,5.55,2.02,8.02.86,1.48,1.92,2.78,3.15,3.85,1.09.96,2.17,1.97,3.08,2.82,2.94,2.74,4.68,6.83,4.77,11.22.04,2.01-.25,5.05-1.87,8.16-1.61,3.1-4.16,5.54-7.58,7.26-.66.37-1.4.57-2.13.57-2.97.03-11.86.1-16.89.14-.03,0-.05,0-.08,0Z"/><path class="cls-1" d="m12.96,20.26c-1.27,0-2.32-.18-3.05-.55-.6-.3-.98-.72-1.13-1.25-.35-1.23.68-2.88,2.87-4.63,2.13-1.7,5.13-3.33,8.44-4.59,5.4-2.05,10.51-2.68,12.73-1.56.6.3.98.72,1.13,1.25.35,1.23-.68,2.88-2.87,4.63-2.13,1.7-5.13,3.33-8.44,4.59-3.61,1.37-7.1,2.11-9.68,2.11Zm7.23-10.76l.1.26c-3.26,1.24-6.21,2.84-8.3,4.5-1.99,1.58-2.97,3.06-2.69,4.05.1.37.39.68.85.91.65.33,1.61.49,2.78.49,2.5,0,5.98-.73,9.51-2.07,3.26-1.24,6.21-2.84,8.3-4.5,1.99-1.58,2.97-3.06,2.69-4.05-.1-.37-.39-.68-.85-.91-2.06-1.04-7.11-.39-12.29,1.59l-.1-.26Z"/><path class="cls-2" d="m32.22,2.67l-2.62,8.72c-3.56,2.74-12.41,5.96-15.85,5.73-1.19-4.23-3.32-12.75-3.34-13.18,0,0,0-.01,0-.02-.06-1.46,4.77-3.03,10.81-3.5,6.05-.47,11.03.33,11.11,1.79l-.11.46h0Z"/><path class="cls-1" d="m14.1,17.41c-.13,0-.25,0-.37-.01-.12,0-.22-.09-.25-.21-1.16-4.13-3.33-12.77-3.35-13.24,0,0,0-.01,0-.02-.08-1.89,5.64-3.37,11.07-3.79,5.15-.4,9.67.11,10.98,1.26.27.24.42.51.44.8,0,.03,0,.06,0,.08l-.11.46s0,0,0,.01l-2.62,8.72c-.02.06-.05.11-.1.14-1.7,1.31-4.71,2.81-8.04,4.02-3.12,1.13-5.92,1.78-7.62,1.78Zm-.13-.57c3.46.09,11.88-2.98,15.38-5.63l2.59-8.62.1-.4c-.02-.12-.1-.24-.24-.37-1.02-.89-4.97-1.56-10.56-1.12-2.9.23-5.61.71-7.63,1.37-2.18.71-2.94,1.41-2.92,1.84,0,0,0,.01,0,.02.05.5,2.1,8.69,3.28,12.92ZM32.22,2.67h0,0Z"/><path class="cls-2" d="m11.99,70.5l17.19-.13c.45-.23.91-.46,1.35-.72.94-.55,2.15-1.36,2.98-2.08,2.14-1.85,3.69-4.29,4.55-7.23.43-1.47.43-2.16.53-3.71.07-1.02-.28-2.55-.48-3.44-.38-1.76-1.13-3.42-2.13-4.81-1.43-1.98-3.42-3.31-5.13-4.92-.96-.91-1.4-1.39-2.22-2.5-.17-.24-.33-.49-.47-.76-.09-.16-.39-.96-.64-1.14-.23-.16-.9-.11-1.08-.16-.21-.06-.41-.16-.59-.3-.69-.52-.88-1.42-1.02-2.29-.15-.95.04-1.9-.92-2.23,0,0-.28,0-.41.05-.12.05-.24.13-.31.25-.27.42-.24.82-.14,1.31.2.98.35.91.51,1.89.21,1.31.01,2.64-.48,3.83-.15.35-.31.7-.6.92-.61.48-1.48.14-1.73-.66-.1-.33-.08-.78-.05-1.11,0-.11.19-.92.12-1.2-.15-.62-.74-.61-1.13-.35-.62.41-.9,1.22-1.05,1.99-.02.07-.04.14-.07.2-.1.22-.26.59-.53.57-.24-.02-.28-.18-.47-.34-.34-.31-.73-.48-1.11-.1-.1.1-.18.24-.24.39-.25.64-.59,2.39-1.62,1.73-.22-.14-.42-.32-.61-.51-.1-.1-.17-.23-.24-.36-1.15-2.19,1.44-3.94,1.94-5.75.25-.9-.48-1.7-1.24-1.57-1.09.19-1.4,1.48-1.76,2.49-.22.63-.42,1.27-.67,1.89-.21.53-.45,1.05-.72,1.54-.61,1.1-.65,1.06-1.16,1.75-1.81,2.42-3.62,4.83-5.43,7.25-.65.88-1.27,1.78-1.72,2.83-.6,1.42-.98,2.97-1.04,4.56-.08,2.27.35,4.61,1.35,6.58,1.76,3.47,5.23,6.02,8.68,6.37h0Zm-2.56-4.16c-.01-.17-.07-.18.03-.45.07-.21.34-.26.49-.24.46.04,1.11.68,1.37.83.39.24.8.46,1.22.62.58.21,2.15.07,2.06,1.31-.07,1.01-1.28,1.11-1.92.98-.96-.19-1.85-.79-2.53-1.59-.32-.38-.69-.87-.72-1.45h0Zm-4.03-13.35c-.16.22-.33.43-.47.67-.33.53-.66,1.21-.85,1.82-.54,1.7-.5,3.53.15,5.18.25.63.54,1.43,1.25,1.41.55,0,1.01-.61.9-1.26-.05-.33-.57-1.01-.67-1.2-.35-.64-.51-1.53-.24-2.24.16-.44.32-.57.63-.87.27-.26.56-.49.83-.76.67-.69,1.65-2.31.79-3.26,0,0-.97-1.01-2.3.5h0Zm4.19-5.68c.64,0,1.13.76.86,1.46-.05.13-.12.24-.2.34-.09.1-.19.17-.3.23-.12.06-.24.08-.36.08s-.25-.03-.36-.08c-.11-.05-.21-.13-.3-.23-.08-.1-.15-.21-.2-.34-.26-.7.22-1.46.86-1.46h0Zm18.6-3.91c.82,0,1.47.97,1.12,1.88-.06.16-.15.31-.26.43-.11.12-.24.22-.39.29-.15.07-.31.11-.47.11s-.32-.04-.47-.11c-.14-.07-.28-.17-.39-.29-.11-.12-.2-.27-.26-.43-.35-.91.3-1.88,1.12-1.88h0Zm-15.98.26c.46,0,.83.55.63,1.06-.03.09-.09.17-.15.24-.06.07-.14.13-.22.16-.09.04-.17.06-.27.06-.46,0-.83-.55-.63-1.06.03-.09.09-.17.15-.24.06-.07.14-.13.22-.16.09-.04.18-.06.27-.06h0Zm7.33-1.53c.46,0,.83.55.63,1.06-.03.09-.09.17-.15.24-.06.07-.14.13-.22.16-.09.04-.17.06-.27.06-.46,0-.83-.55-.63-1.06.03-.09.09-.17.15-.24.06-.07.14-.13.22-.16.09-.04.17-.06.27-.06h0Zm5.99-1.81c.46,0,.83.55.63,1.06-.03.09-.09.17-.15.24-.06.07-.14.13-.22.16-.09.04-.17.06-.27.06-.46,0-.83-.55-.63-1.06.03-.09.09-.17.15-.24.06-.07.14-.13.22-.16.09-.04.17-.06.27-.06h0Z"/><path class="cls-1" d="m11.99,70.78s-.02,0-.03,0c-3.53-.36-7.11-2.98-8.9-6.52-.97-1.93-1.46-4.31-1.38-6.72.06-1.56.41-3.13,1.06-4.66.47-1.11,1.12-2.04,1.75-2.89,2.18-2.91,3.85-5.15,5.43-7.25.11-.15.2-.27.28-.37.28-.36.39-.5.86-1.35.24-.43.46-.91.71-1.51.17-.41.32-.85.46-1.28.07-.2.14-.4.21-.6.04-.1.07-.21.11-.32.32-.96.73-2.16,1.87-2.36.44-.08.9.09,1.22.44.36.4.49.95.34,1.48-.18.67-.63,1.33-1.06,1.96-.81,1.19-1.57,2.3-.9,3.59.05.1.12.21.19.29.19.2.38.35.56.47.21.14.32.1.36.09.32-.11.56-.85.71-1.29.05-.15.09-.28.14-.39.09-.22.18-.37.3-.49.58-.57,1.19-.18,1.5.1.07.06.12.12.16.17.09.1.09.1.14.1.05-.01.13-.14.24-.37v-.03s.05-.09.06-.15c.21-1.07.6-1.78,1.17-2.16.32-.22.71-.28,1.02-.15.27.11.47.35.54.67.06.26-.01.74-.09,1.16,0,.05-.02.12-.02.13-.02.16-.06.67.04,1,.1.32.33.56.61.65.24.08.48.03.68-.12.24-.18.38-.5.51-.8.5-1.19.66-2.46.47-3.68-.08-.5-.15-.7-.24-.94-.08-.22-.17-.46-.27-.93-.09-.45-.16-.98.18-1.52.12-.2.31-.3.44-.36.17-.07.44-.08.52-.07.03,0,.06,0,.09.02.92.32.98,1.14,1.04,1.86.02.2.03.4.06.59.13.82.3,1.65.91,2.11.15.12.32.2.49.25.04,0,.16.01.26.02.39.02.7.04.91.18.24.17.44.59.64,1.05.03.08.07.15.08.18.17.31.31.53.45.72.83,1.13,1.25,1.58,2.19,2.46.54.51,1.11.99,1.67,1.46,1.23,1.04,2.5,2.11,3.49,3.5,1.04,1.44,1.79,3.14,2.18,4.91l.03.15c.21.94.52,2.37.45,3.38-.01.18-.02.35-.03.51-.08,1.21-.12,1.94-.51,3.27-.87,2.98-2.43,5.46-4.63,7.36-.91.79-2.2,1.63-3.03,2.11-.45.26-.91.5-1.36.73-.04.02-.08.03-.13.03l-17.19.13h0Zm2.63-35.27s-.08,0-.12.01c-.81.14-1.12,1.08-1.43,1.98-.04.11-.07.22-.11.33-.07.2-.14.4-.2.59-.15.43-.3.88-.47,1.31-.25.62-.49,1.12-.74,1.57-.49.88-.62,1.05-.91,1.42-.08.1-.16.21-.27.36-1.58,2.11-3.25,4.34-5.43,7.25-.61.82-1.24,1.72-1.68,2.77-.62,1.47-.96,2.97-1.01,4.46-.08,2.31.38,4.6,1.31,6.44,1.71,3.37,5.1,5.87,8.44,6.21l17.11-.13c.42-.21.86-.44,1.27-.68.81-.47,2.06-1.29,2.94-2.05,2.12-1.83,3.62-4.22,4.46-7.09.37-1.27.41-1.94.49-3.15.01-.16.02-.33.03-.51.06-.93-.25-2.36-.44-3.22l-.03-.15c-.37-1.7-1.09-3.33-2.09-4.7-.96-1.33-2.2-2.38-3.4-3.4-.56-.48-1.14-.97-1.69-1.48-.95-.89-1.41-1.39-2.25-2.54-.16-.21-.31-.46-.49-.79-.03-.05-.06-.12-.1-.22-.08-.18-.32-.73-.45-.82-.08-.06-.45-.08-.61-.08-.17,0-.29-.01-.39-.04-.24-.07-.47-.18-.68-.34-.77-.58-.98-1.54-1.13-2.48-.03-.22-.05-.43-.07-.64-.06-.75-.12-1.16-.62-1.35-.11,0-.22.02-.26.03-.08.03-.15.08-.18.14-.21.33-.2.64-.1,1.1.09.43.17.65.24.86.09.25.18.49.27,1.04.21,1.32.03,2.7-.5,3.98-.15.36-.34.76-.68,1.03-.35.27-.78.35-1.2.22-.46-.14-.82-.53-.98-1.02-.12-.39-.1-.88-.06-1.22,0-.03.01-.08.03-.18.03-.19.14-.77.1-.93-.04-.15-.1-.24-.2-.28-.13-.05-.34-.01-.5.1-.45.3-.75.89-.93,1.81,0,0,0,.01,0,.02-.02.08-.04.16-.08.25v.03c-.13.26-.35.74-.81.7-.28-.02-.42-.18-.52-.3-.04-.04-.07-.08-.11-.12-.4-.36-.58-.25-.73-.11-.06.06-.12.15-.17.29-.04.09-.08.22-.12.36-.2.61-.47,1.44-1.06,1.65-.27.1-.55.05-.85-.14-.22-.14-.43-.32-.66-.55-.13-.13-.22-.29-.29-.42-.83-1.58.11-2.95.93-4.17.42-.62.83-1.21.99-1.79.09-.34.01-.7-.22-.95-.16-.18-.38-.28-.59-.28Zm-1.46,34.2c-.19,0-.38-.02-.53-.05-.98-.2-1.94-.79-2.69-1.69-.37-.43-.75-.96-.79-1.61,0,0,0,0,0,0,0-.03,0-.05-.01-.08-.03-.15-.02-.25.06-.48.13-.36.54-.45.78-.43.41.04.88.4,1.22.67.11.08.21.16.26.2.37.22.76.45,1.17.59.11.04.29.07.49.1.69.11,1.85.29,1.76,1.49-.03.39-.2.71-.49.93-.35.26-.81.36-1.24.36Zm-3.45-3.38c.03.48.35.92.66,1.28.67.79,1.51,1.33,2.37,1.5.4.08.98.05,1.31-.2.16-.13.25-.3.27-.52.04-.59-.36-.75-1.29-.9-.22-.03-.43-.07-.59-.12-.45-.16-.87-.41-1.27-.64-.09-.05-.19-.13-.32-.24-.25-.2-.68-.53-.93-.55-.09,0-.19.03-.2.06-.05.13-.04.14-.03.19,0,.03.01.08.02.15h0Zm-4.26-3.97c-.87,0-1.21-.89-1.47-1.53l-.02-.06c-.66-1.68-.72-3.58-.16-5.37.19-.61.51-1.29.88-1.89.15-.24.32-.47.49-.69,0,0,0-.01.01-.02.53-.61,1.08-.92,1.64-.93.65-.01,1.06.4,1.07.42,0,0,0,0,0,0,.96,1.06.03,2.8-.79,3.65-.16.17-.33.32-.5.46-.12.1-.23.2-.34.3l-.05.04c-.27.26-.38.36-.51.72-.21.57-.12,1.36.23,2.01.02.04.08.13.14.22.28.42.51.79.56,1.06.07.42-.04.84-.31,1.16-.23.27-.54.43-.86.43,0,0-.01,0-.02,0Zm.16-9.19c-.16.21-.31.42-.45.64-.34.55-.65,1.2-.82,1.76-.52,1.66-.47,3.44.14,5l.02.06c.26.67.5,1.18.95,1.17.16,0,.32-.08.44-.23.16-.19.23-.45.19-.7-.03-.18-.33-.63-.47-.84-.08-.12-.14-.21-.17-.27-.34-.62-.58-1.6-.26-2.47.18-.48.37-.66.65-.93l.05-.04c.12-.11.24-.22.35-.32.16-.14.32-.28.47-.43.55-.56,1.5-2.07.78-2.87-.02-.02-.27-.26-.66-.24-.39.01-.8.26-1.21.73Zm3.97-3.47c-.17,0-.33-.04-.49-.11-.14-.07-.28-.17-.39-.29-.11-.12-.2-.27-.25-.42-.16-.44-.1-.93.16-1.31.23-.34.59-.53.96-.53s.73.19.96.53c.27.38.33.87.16,1.31-.06.16-.15.3-.25.42-.11.12-.24.23-.39.29-.15.07-.32.11-.49.11Zm0-2.11c-.19,0-.37.11-.5.29-.16.23-.2.53-.1.79.03.09.08.18.15.25.06.07.13.12.21.16.16.07.33.07.49,0,.08-.04.15-.09.21-.16.06-.07.11-.16.15-.25.1-.27.06-.56-.1-.79-.13-.18-.31-.29-.5-.29Zm18.6-1.2c-.21,0-.4-.04-.59-.13-.18-.08-.34-.21-.48-.36-.13-.15-.24-.33-.31-.52-.2-.53-.13-1.13.19-1.6.29-.41.73-.66,1.19-.66s.91.25,1.19.66c.32.47.4,1.07.19,1.6-.07.19-.18.37-.31.52-.14.15-.3.27-.48.36-.19.09-.39.13-.59.13Zm0-2.71c-.27,0-.55.16-.73.42-.22.32-.27.72-.13,1.08.05.13.12.24.21.34.09.1.19.17.3.22.23.11.48.11.71,0,.11-.05.21-.13.3-.22.09-.1.16-.22.21-.34.14-.36.09-.76-.13-1.08-.18-.26-.45-.42-.73-.42Zm-15.98,1.79c-.3,0-.59-.16-.77-.43-.21-.3-.25-.68-.12-1.02.05-.12.12-.24.2-.33.09-.1.19-.18.31-.23.12-.06.25-.09.39-.09.3,0,.59.16.77.43.21.3.25.68.12,1.02-.05.12-.12.24-.2.33-.09.1-.19.18-.31.23-.12.06-.25.09-.39.09Zm0-1.53c-.05,0-.1.01-.15.03-.05.02-.09.06-.13.1-.04.04-.07.1-.09.15-.06.17-.04.35.06.5.08.11.19.18.31.18.05,0,.1-.01.15-.03.05-.02.09-.06.13-.1.04-.04.07-.1.09-.15.06-.17.04-.35-.06-.5-.08-.11-.19-.18-.31-.18Zm7.33,0c-.3,0-.59-.16-.77-.43-.21-.3-.25-.68-.12-1.02.05-.12.12-.24.2-.33.09-.1.19-.18.31-.23.12-.06.25-.09.39-.09.3,0,.59.16.77.43.21.3.25.68.12,1.02-.05.12-.12.24-.2.33-.09.1-.19.18-.31.23-.12.06-.25.09-.39.09Zm0-1.53c-.05,0-.1.01-.15.03-.05.02-.09.06-.13.1-.04.04-.07.1-.09.15-.06.17-.04.35.06.5.08.11.19.18.31.18.05,0,.1-.01.15-.03.05-.02.09-.06.13-.1.04-.04.07-.1.09-.15.06-.17.04-.35-.06-.5-.08-.11-.19-.18-.31-.18Zm5.99-.28c-.3,0-.59-.16-.77-.43-.21-.3-.25-.68-.12-1.02.05-.12.12-.24.2-.33.09-.1.19-.18.31-.23.12-.06.25-.09.39-.09.3,0,.59.16.77.43.21.3.25.68.12,1.02-.05.12-.12.24-.2.33-.09.1-.19.18-.31.23-.12.06-.25.09-.39.09Zm0-1.53c-.05,0-.1.01-.15.03-.05.02-.09.06-.13.1-.04.04-.07.1-.09.15-.06.17-.04.35.06.5.08.11.19.18.31.18.05,0,.1-.01.15-.03.05-.02.09-.06.13-.1.04-.04.07-.1.09-.15.06-.17.04-.35-.06-.5-.08-.11-.19-.18-.31-.18Z"/></g></svg>