<?xml version="1.0" encoding="UTF-8"?><svg id="Calque_2" xmlns="http://www.w3.org/2000/svg" viewBox="0 0 58.75 84.49"><defs><style>.cls-1{fill:#ef84a7;fill-rule:evenodd;}</style></defs><g id="Calque_1-2"><path class="cls-1" d="m37.75,32.99c5.81-2.51,12.37-1.25,16.36,2.32,6.18,5.53,6.18,16.58,0,27.63-4.07,7.79-14.15,15.59-23.05,21.08-1.03.63-2.33.63-3.36,0-8.9-5.5-18.98-13.29-23.05-21.08-6.18-11.05-6.18-22.1,0-27.63,3.99-3.56,10.54-4.83,16.36-2.32,0,0-.12-6.38,0-11.91,8.25-3.8,16.76,0,16.76,0v11.91h0Zm-.56,0c0,.19.1.37.25.47.16.1.36.12.53.05,5.6-2.42,11.92-1.21,15.76,2.22,6.03,5.39,5.91,16.16-.12,26.93,0,0,0,0,0,.01-4.03,7.72-14.03,15.42-22.85,20.86-.85.52-1.92.52-2.77,0-8.82-5.44-18.82-13.15-22.85-20.86,0,0,0,0,0-.01-6.03-10.77-6.14-21.55-.12-26.93,3.84-3.43,10.16-4.64,15.76-2.22.18.08.38.06.54-.05.16-.11.25-.29.25-.48,0,0-.11-6.1,0-11.53,6.97-3.04,14.04-.62,15.64,0v11.53h0Z"/><path class="cls-1" d="m40.71,14.05l-23.17-.09s.09,4.94.02,8.48c0,.17.08.33.22.43.14.09.32.11.48.04,5.97-2.68,13.62-4.35,21.44-.08.18.1.39.1.57,0,.18-.1.29-.28.3-.49.11-3.33.14-8.28.14-8.28h0Zm-22.58,8.3c.05-2.8,0-6.43-.01-7.82l22.03.08h0c-.01,1.39-.05,5.06-.14,7.7,0,0,0,.01-.01.02,0,0-.01,0-.02,0,0,0,0,0,0,0-7.95-4.35-15.75-2.7-21.84.02h0Z"/><path class="cls-1" d="m17.28,35.95s-9.5-4.49-13.42,8.47c-.03.1-.05.19-.05.29,0,.26.04.7.36,1.09.3.36.78.51,1.23.39.49-.13,1.16-.43,1.33-1.11,0,0,0-.02,0-.03.07-.23,2.54-8.71,10.54-9.11h0Z"/><path class="cls-1" d="m17.28,35.95s-9.5-4.49-13.42,8.47c-.03.1-.05.19-.05.29,0,.26.04.7.36,1.09.3.36.78.51,1.23.39.49-.13,1.16-.43,1.33-1.11,0,0,0-.02,0-.03.07-.23,2.54-8.71,10.54-9.11h0Zm-1.29-.15c-7.19,1.18-9.47,8.95-9.53,9.18v.04c-.15.57-.72.79-1.13.9-.35.09-.71-.03-.94-.3-.27-.32-.3-.68-.3-.9,0-.08.02-.15.04-.22,1.53-5.07,3.92-7.42,6.25-8.4,2.2-.93,4.34-.63,5.61-.29h0Z"/><path class="cls-1" d="m9.98,46.05c-3.04.25-5.48,2.6-5.85,5.63-.14,1.12-.15,2.49.08,4.14.18,1.37.62,2.69,1.29,3.9,2.05,3.68,7.61,12.67,22.4,21.54.93.58,2.26.5,3.18-.08,7.71-4.18,21.37-14.76,25.12-29.8,0,0-11.1,6.86-23.59,4.39-3.61-.71-7-2.28-9.88-4.58-2.59-2.07-7.77-5.55-12.75-5.14h0Zm30.79,24.28c.12-.28.04-.6-.19-.79-.23-.19-.56-.21-.81-.05-.95.61-2.13,1.43-3.02,2.27-.54.52-.57,1.39-.05,1.94.51.55,1.38.59,1.94.09.7-.63,1.45-1.7,2.14-3.46h0Zm7.71-12.12c-.06-.31-.25-.58-.52-.74-.27-.16-.6-.2-.9-.1-.43.14-.97.45-1.59,1.12,0,0-2.53,3.45-3.48,5.71-.2.47-.08,1.02.29,1.36.37.35.92.43,1.38.2.06-.03.13-.07.2-.11,0,0,5.27-4.18,4.63-7.44h0Z"/><path class="cls-1" d="m9.98,46.05c-3.04.25-5.48,2.6-5.85,5.63-.14,1.12-.15,2.49.08,4.14.18,1.37.62,2.69,1.29,3.9,2.05,3.68,7.61,12.67,22.4,21.54.93.58,2.26.5,3.18-.08,7.71-4.18,21.37-14.76,25.12-29.8,0,0-11.1,6.86-23.59,4.39-3.61-.71-7-2.28-9.88-4.58-2.59-2.07-7.77-5.55-12.75-5.14h0Zm.05.56s0,0,0,0c4.84-.4,9.84,3.01,12.36,5.02,2.95,2.36,6.42,3.97,10.12,4.7,10.26,2.03,19.59-2.12,22.81-3.8-4.14,14.19-17.1,24.15-24.5,28.17,0,0-.02.01-.03.02-.75.47-1.83.55-2.59.08,0,0,0,0,0,0-14.66-8.79-20.17-17.69-22.2-21.33-.63-1.15-1.05-2.4-1.22-3.7,0,0,0,0,0,0-.22-1.6-.21-2.92-.07-4,0,0,0,0,0,0,.33-2.76,2.56-4.91,5.33-5.13h0Zm31.27,23.93c.21-.5.07-1.08-.35-1.43-.42-.35-1.02-.39-1.48-.09-.98.62-2.19,1.47-3.1,2.34,0,0,0,0,0,0-.76.74-.8,1.95-.07,2.73s1.94.83,2.73.12c0,0,0,0,0,0,.74-.67,1.55-1.8,2.28-3.67h0Zm-.52-.21c.12-.28.04-.6-.19-.79-.23-.19-.56-.21-.81-.05-.95.61-2.13,1.43-3.02,2.27-.54.52-.57,1.39-.05,1.94.51.55,1.38.59,1.94.09.7-.63,1.45-1.7,2.14-3.46h0Zm8.27-12.23s0,0,0,0c-.09-.47-.38-.87-.79-1.12-.41-.24-.9-.3-1.36-.16,0,0,0,0,0,0-.49.16-1.12.51-1.83,1.27-.02.02-.03.03-.04.05,0,0-2.57,3.52-3.55,5.82,0,0,0,0,0,0-.29.69-.12,1.48.43,1.99.54.51,1.35.63,2.02.3,0,0,0,0,.01,0,.07-.04.15-.08.22-.12.02-.01.04-.03.06-.04,0,0,1.96-1.56,3.38-3.53,1.02-1.41,1.73-3.03,1.45-4.47h0Zm-.55.11c-.06-.31-.25-.58-.52-.74-.27-.16-.6-.2-.9-.1-.43.14-.97.45-1.59,1.12,0,0-2.53,3.45-3.48,5.71-.2.47-.08,1.02.29,1.36.37.35.92.43,1.38.2.06-.03.13-.07.2-.11,0,0,5.27-4.18,4.63-7.44h0Z"/><path class="cls-1" d="m56.5,50.64c-.17.65-.58,1.21-1.14,1.58-5.52,3.57-15.07,4.31-15.66,4.36-.02,0-.05,0-.07,0-12,.64-19-6.97-19-6.97,0,0,6.7,3.88,15.94.62.37-.13.74-.29,1.09-.47,2.01-1.01,9.99-4.75,15.81-3.7.06.01.12.02.18.04.65.2,3.74,1.31,2.84,4.53h0Z"/><path class="cls-1" d="m56.5,50.64c-.17.65-.58,1.21-1.14,1.58-5.52,3.57-15.07,4.31-15.66,4.36-.02,0-.05,0-.07,0-12,.64-19-6.97-19-6.97,0,0,6.7,3.88,15.94.62.37-.13.74-.29,1.09-.47,2.01-1.01,9.99-4.75,15.81-3.7.06.01.12.02.18.04.65.2,3.74,1.31,2.84,4.53h0Zm-.27-.08s0,0,0,0c-.15.58-.52,1.09-1.02,1.42-5.47,3.54-14.93,4.27-15.52,4.31-.02,0-.04,0-.06,0-8.9.48-15.02-3.64-17.52-5.72,2.55.96,7.91,2.27,14.57-.08,0,0,0,0,0,0,.38-.14.76-.3,1.12-.49,1.99-1,9.87-4.71,15.63-3.67.05,0,.1.02.15.03.61.19,3.48,1.2,2.65,4.19h0Z"/><path class="cls-1" d="m23.5,14.46c-1.1-1.02-2.44-2.62-3.02-3.68-2.22-3.83-2.22-7.65,0-9.57,1.98-1.71,6.54-2.02,8.54,1.76.11.21.33.34.57.34.24,0,.46-.14.56-.35,1.67-3.22,6.16-3.43,8.11-1.75,2.22,1.91,2.22,5.74,0,9.57-.62,1.15-1.89,2.6-3.09,3.68h-11.67Z"/><path class="cls-1" d="m23.5,14.46c-1.1-1.02-2.44-2.62-3.02-3.68-2.22-3.83-2.22-7.65,0-9.57,1.98-1.71,6.54-2.02,8.54,1.76.11.21.33.34.57.34.24,0,.46-.14.56-.35,1.67-3.22,6.16-3.43,8.11-1.75,2.22,1.91,2.22,5.74,0,9.57-.62,1.15-1.89,2.6-3.09,3.68h-11.67Zm.22-.56c-1.02-.98-2.22-2.41-2.74-3.39,0,0,0,0,0-.01-2.06-3.54-2.18-7.09-.12-8.86,1.78-1.53,5.88-1.8,7.67,1.6,0,0,0,0,0,0,.21.4.62.64,1.07.64.45,0,.86-.25,1.06-.65.9-1.73,2.72-2.48,4.4-2.48,1.1,0,2.16.31,2.84.9h0c2.06,1.77,1.94,5.31-.12,8.86,0,0,0,0,0,.01-.57,1.05-1.71,2.36-2.82,3.39h-11.23Z"/></g></svg>