<?xml version="1.0" encoding="UTF-8"?><svg id="Calque_2" xmlns="http://www.w3.org/2000/svg" viewBox="0 0 34.42 68.34"><defs><style>.cls-1,.cls-2{fill:#2a646c;}.cls-2{fill-rule:evenodd;}</style></defs><g id="Calque_1-2"><path class="cls-1" d="m16.44,68.34l-4.94-.02s-.04,0-.06,0c-.59-.1-1-.35-1.23-.73-.19-.31-.2-.63-.18-.85-5.08-3.22-8.27-7.59-9.48-12.99-.65-2.91-.73-6.15-.24-9.61.4-2.82,1.19-5.8,2.33-8.87,1.97-5.29,4.39-9.23,5.09-10.31.18-.27.34-.55.47-.83.23-.47.39-.85.54-1.36.05-.18.23-.28.41-.23.18.05.28.23.23.41-.16.57-.33.97-.58,1.48-.15.31-.32.61-.51.9-.49.76-3.02,4.81-5.02,10.18-1.13,3.03-1.9,5.97-2.3,8.73-.48,3.38-.41,6.54.23,9.37,1.19,5.29,4.34,9.56,9.38,12.7.13.08.19.24.14.39,0,0-.09.31.07.57.12.2.37.34.74.41l4.91.02,6.37-.02c.37-.07.62-.21.74-.41.15-.26.06-.56.06-.56-.05-.15.01-.31.14-.39,5.07-3.16,8.25-7.46,9.45-12.79.63-2.82.72-5.95.25-9.31-.38-2.75-1.14-5.66-2.24-8.66-1.98-5.38-4.46-9.35-4.94-10.09-.19-.29-.36-.59-.51-.9-.28-.57-.5-1.18-.66-1.82-.05-.18.06-.36.24-.4.18-.05.36.06.4.24.15.59.36,1.16.62,1.69.14.28.3.56.47.83,1.02,1.59,9.88,15.85,7.03,28.56-1.22,5.44-4.44,9.84-9.55,13.09.02.22,0,.54-.18.85-.23.38-.64.63-1.23.73-.02,0-.04,0-.06,0l-6.4.02Zm6.4-.35h0,0ZM8.81,15.91c-.14,0-.28-.09-.32-.24-.15-.52-.33-1.05-.52-1.58,0,0,0,0,0,0-.51-1.35-1.08-2.48-1.47-3.2-.21-.37-.2-.8.02-1.17.21-.35.58-.59,1.03-.67.01,0,.02,0,.03,0,1.49-.11,4.37-.23,9.6-.19,5.23-.04,8.11.08,9.6.19.01,0,.02,0,.03,0,.44.08.82.33,1.03.67.22.37.22.8.02,1.17-.58,1.05-1.39,2.72-1.96,4.66-.05.18-.24.28-.41.23-.18-.05-.28-.24-.23-.41.59-1.99,1.42-3.71,2.02-4.79.09-.17.09-.35,0-.51-.11-.18-.31-.31-.56-.36-1.49-.11-4.34-.23-9.53-.19-5.19-.04-8.05.08-9.54.19-.24.05-.45.18-.56.36-.1.16-.1.34,0,.5.4.74.99,1.9,1.51,3.29,0,0,0,0,0,0,.2.55.39,1.09.54,1.63.05.18-.05.36-.23.41-.03,0-.06.01-.09.01Z"/><path class="cls-2" d="m10.58,9.08l-1.96-7.08c3.62-2.09,14.4-2.36,17.47,0,0,0-1.61,4.18-2.54,7.17l-12.96-.09h0Z"/><path class="cls-1" d="m23.55,9.5h0l-12.96-.09c-.15,0-.27-.1-.31-.24l-1.96-7.08c-.04-.14.02-.3.15-.37,3.68-2.13,14.6-2.46,17.83.03.11.09.16.24.11.38-.02.04-1.61,4.2-2.54,7.15-.04.14-.17.23-.31.23Zm-12.71-.74l12.47.08c.81-2.53,2.04-5.82,2.39-6.72-1.43-.94-4.5-1.5-8.13-1.46-3.53.03-6.84.62-8.56,1.51l1.83,6.59Z"/><path class="cls-2" d="m7.36,32.48s-9.66,10.51-3.86,24.58c.66,1.6,1.6,3.07,2.78,4.34,3.37,3.61,6.89,4.76,13.37,4.44.03,0,.05,0,.08,0,0,0,0,0,0,0,2.94-.21,5.65-1.49,7.48-3.53,3.62-4.03,8.21-12.3,2.98-25.55-.17-.42-.57-.74-1.07-.83-.58-.11-1.25.01-1.35,1.12,0,0,.21,1.37-1.06,1.13-.37-.07-.71-.25-.96-.51-.43-.45-1.04-1.37-.78-2.87.08-.47.05-.95-.09-1.41-.15-.51-.46-1.05-1.06-1.28-.47-.18-1.01-.02-1.28.36-.37.54-.66,1.58.5,3.34.15.23.27.48.36.74.54,1.6,2.21,7.25-.8,7.59,0,0-2.36-.4-.9-3.9,0,0,.93-2.18-.66-2.17,0,0-1.56-.08-1.97,2.17-.03.14-.16.26-.33.28-.17.02-.33-.05-.4-.19-.15-.26-.28-.67-.32-1.31-.01-.16-.1-.31-.24-.41-.14-.1-.33-.14-.5-.12-.28.04-.55.22-.58.72,0,0-.49,2.48-1.08,3.59-.05.09-.16.14-.27.12-.11-.02-.19-.11-.19-.2,0-.56-.02-1.4-.18-2-.07-.22-.24-.4-.48-.49-.23-.09-.5-.09-.73.02-.3.13-.63.42-.92.99,0,0-.97,3.88-2.17,5.41-.2.24-.53.37-.87.34-.34-.03-.63-.22-.76-.5-.67-1.45-1.87-5.09.32-9.31.03-.05.06-.1.09-.15.12-.2.39-.68.4-1.12,0-.26-.16-.49-.42-.61-.26-.12-.57-.09-.81.06-.15.1-.3.25-.45.46-.48.72-.27-1.75.49-2.99.1-.14.12-.31.06-.47-.06-.16-.19-.28-.37-.35-.27-.1-.62-.04-1.01.48h0Zm.73,18.11c1.19-.67,3.49.59,5.12,2.83,1.63,2.24,1.99,4.6.79,5.28-1.19.67-3.49-.59-5.12-2.83-1.63-2.24-1.99-4.6-.79-5.28h0Zm20.27-5.21c1.32.45,1.3,3.31-.05,6.39-1.35,3.08-3.52,5.21-4.84,4.76-1.32-.45-1.3-3.31.05-6.39,1.35-3.08,3.52-5.21,4.84-4.76h0Zm-11.43,1.29c.47-.09,1.03.55,1.25,1.43.21.88,0,1.67-.47,1.76-.47.09-1.03-.55-1.25-1.43-.21-.88,0-1.67.47-1.76h0Zm4.03.2c.42.22.32,1.03-.2,1.8-.53.77-1.29,1.22-1.71,1-.42-.22-.32-1.03.2-1.8.53-.77,1.29-1.22,1.71-1h0Z"/><path class="cls-1" d="m17.68,66.21c-5.38,0-8.56-1.3-11.63-4.59-1.21-1.3-2.17-2.79-2.85-4.43-1.34-3.25-1.97-6.59-1.86-9.91.08-2.66.63-5.32,1.62-7.9,1.65-4.28,3.95-6.87,4.15-7.1.55-.75,1.1-.69,1.37-.58.26.09.46.29.55.53.1.25.06.53-.09.76-.39.64-.61,1.62-.68,2.23.06-.05.12-.1.18-.14.33-.22.76-.25,1.12-.09.38.17.62.52.61.91,0,.54-.31,1.08-.45,1.29-.03.04-.05.09-.08.13-2.13,4.12-.93,7.68-.31,9.03.08.17.27.29.5.31.23.02.46-.06.59-.22,1.15-1.46,2.1-5.25,2.11-5.28,0-.02.01-.05.03-.07.29-.58.65-.96,1.08-1.14.3-.13.66-.14.98-.02.33.13.57.38.67.7,0,0,0,0,0,.01.14.51.18,1.17.19,1.72.47-1.1.86-2.98.91-3.19.05-.57.36-.93.86-1,.26-.04.52.03.73.17.22.15.36.39.38.65.03.52.13.91.28,1.17,0,.01.04.03.08.03.03,0,.05-.02.05-.02.24-1.28.83-1.87,1.29-2.14.48-.29.91-.29,1-.29,0,0,0,0,0,0,.58,0,.88.26,1.03.48.49.73-.03,1.99-.09,2.14-.5,1.2-.58,2.16-.24,2.78.27.48.73.64.86.67.45-.06.79-.27,1.02-.64.8-1.26.25-4.2-.54-6.53-.08-.23-.19-.45-.33-.66-.56-.85-1.36-2.45-.49-3.7.35-.5,1.05-.7,1.65-.48.6.23,1.03.74,1.25,1.49.16.51.19,1.03.1,1.56-.23,1.31.25,2.13.69,2.6.2.21.48.36.79.42.25.05.43.02.53-.07.18-.17.17-.56.15-.69,0-.03,0-.05,0-.08.05-.55.24-.96.56-1.2.3-.23.7-.3,1.17-.21.61.12,1.1.5,1.31,1.03,2.34,5.92,2.96,11.45,1.84,16.42-.99,4.44-3.2,7.6-4.88,9.46-1.87,2.09-4.67,3.41-7.67,3.64,0,0-.02,0-.03,0-.03,0-.06,0-.09,0-.7.03-1.36.05-1.99.05ZM7.6,32.7s-2.41,2.65-4.05,6.94c-.96,2.51-1.49,5.09-1.57,7.68-.1,3.23.51,6.47,1.82,9.63.65,1.57,1.56,3,2.72,4.24,3.29,3.52,6.72,4.65,13.12,4.33.01,0,.03,0,.04,0,.01,0,.02,0,.03,0,2.85-.21,5.49-1.46,7.26-3.43,1.63-1.81,3.77-4.88,4.74-9.18,1.08-4.85.48-10.25-1.81-16.05-.13-.32-.44-.56-.83-.63-.29-.06-.51-.03-.66.09-.16.12-.27.36-.3.71.02.18.06.82-.34,1.2-.26.25-.63.33-1.1.24-.44-.09-.84-.3-1.13-.61-.44-.46-1.15-1.49-.86-3.15.07-.42.04-.85-.08-1.26-.16-.56-.46-.92-.86-1.07-.33-.12-.72-.02-.9.24-.34.49-.53,1.4.5,2.98.17.25.3.53.4.81.52,1.54,1.6,5.31.47,7.08-.35.54-.86.86-1.54.94-.03,0-.06,0-.09,0-.04,0-.89-.16-1.36-1-.44-.81-.37-1.93.21-3.34.18-.41.37-1.19.14-1.53-.03-.05-.13-.19-.5-.19,0,0-.01,0-.02,0-.05,0-1.29-.02-1.64,1.91-.06.29-.3.5-.6.54-.29.04-.58-.1-.72-.35-.2-.35-.32-.83-.36-1.45,0-.06-.04-.12-.11-.16-.08-.05-.18-.08-.27-.06-.1.01-.28.04-.3.43,0,.01,0,.03,0,.04-.02.1-.51,2.54-1.11,3.68-.11.21-.37.33-.61.28-.26-.05-.45-.26-.46-.51,0,0,0,0,0-.01,0-.46-.01-1.31-.17-1.91-.04-.12-.14-.22-.29-.28-.15-.06-.34-.06-.48,0-.28.12-.53.39-.74.81-.11.42-1.04,3.99-2.22,5.49-.27.33-.71.51-1.15.46-.45-.04-.84-.3-1.02-.68-.66-1.43-1.94-5.23.32-9.6.03-.06.07-.12.1-.18.16-.26.34-.65.35-.95,0-.13-.09-.25-.23-.31-.16-.07-.36-.06-.5.04-.13.09-.25.21-.36.37-.27.41-.56.25-.62.22-.1-.07-.37-.24-.14-1.55.07-.37.27-1.3.7-2.01,0,0,0,0,0-.01.04-.05.05-.12.02-.17-.03-.07-.09-.13-.17-.16-.19-.07-.4.05-.64.37,0,0-.01.02-.02.03h0Zm.29,2.96h0,0Zm-.52-3.18h0,0Zm5.9,26.72c-1.37,0-3.22-1.21-4.63-3.14-1.18-1.62-1.76-3.38-1.5-4.57.12-.53.39-.94.81-1.17h0c1.35-.76,3.78.52,5.54,2.92,1.18,1.62,1.76,3.38,1.5,4.58-.12.53-.39.94-.81,1.17-.26.15-.57.22-.9.22Zm-5.17-8.61l.16.28c-.25.14-.42.39-.5.75-.22,1.01.33,2.6,1.39,4.06,1.67,2.29,3.78,3.26,4.7,2.74.25-.14.42-.39.5-.75.22-1.01-.33-2.6-1.39-4.06-1.67-2.29-3.78-3.26-4.7-2.74l-.16-.28Zm15.75,6.32c-.17,0-.32-.03-.48-.08-.4-.14-.72-.45-.92-.91-.55-1.25-.24-3.57.78-5.91.67-1.53,1.56-2.88,2.5-3.8,1.01-.99,1.98-1.39,2.74-1.13h0c.4.14.72.45.92.91.55,1.25.24,3.57-.78,5.91-.67,1.53-1.56,2.88-2.5,3.8-.81.79-1.59,1.21-2.27,1.21Zm4.14-11.27c-.49,0-1.13.36-1.81,1.03-.89.87-1.73,2.15-2.36,3.6-.94,2.15-1.26,4.32-.78,5.4.13.3.31.48.54.56.51.17,1.27-.18,2.08-.98.89-.87,1.73-2.15,2.36-3.6.94-2.15,1.26-4.32.78-5.4-.13-.3-.31-.48-.54-.56-.08-.03-.18-.04-.27-.04Zm-10.37,4.55c-.61,0-1.23-.69-1.47-1.69-.17-.68-.11-1.34.16-1.74.14-.22.34-.36.57-.4h0c.66-.12,1.36.6,1.62,1.67.04.16.07.33.08.49.09-.27.23-.55.42-.82.54-.79,1.47-1.45,2.13-1.1h0c.2.11.34.29.4.53.12.47-.07,1.11-.49,1.73-.54.79-1.47,1.45-2.13,1.1-.2-.11-.34-.29-.4-.53,0,0,0,0,0-.01-.04.14-.1.26-.16.37-.14.22-.34.36-.57.4-.05,0-.1.01-.15.01Zm-.62-3.2c-.05,0-.1.05-.15.12-.13.19-.22.64-.07,1.24.19.79.65,1.24.87,1.19.05,0,.1-.05.15-.12.13-.19.22-.64.07-1.24-.19-.79-.65-1.24-.87-1.19h0Zm3.72.15c-.26,0-.78.31-1.2.92-.35.51-.45.98-.39,1.21.02.09.06.11.07.12.2.11.82-.2,1.29-.9.35-.51.45-.98.39-1.21-.02-.09-.06-.11-.07-.12h0s-.06-.02-.1-.02Z"/><path class="cls-2" d="m22.52,27.94c.33-.07.72.37.88.98.16.61.02,1.16-.31,1.22-.33.07-.72-.37-.88-.98-.16-.61-.02-1.16.31-1.22h0Z"/><path class="cls-1" d="m23.03,30.49c-.47,0-.95-.5-1.14-1.24-.13-.5-.09-.99.1-1.3.11-.18.27-.3.46-.33.51-.1,1.06.42,1.27,1.23.13.5.09.99-.1,1.3-.11.18-.27.3-.46.33-.04,0-.09.01-.13.01Zm-.44-2.22c-.06.03-.18.33-.05.81.13.51.42.75.49.74.05-.03.18-.33.05-.81-.13-.51-.42-.75-.49-.74Z"/><path class="cls-2" d="m11.59,27.44c-.12.03-.25,0-.34-.09-.09-.09-.13-.22-.1-.34.16-.72.58-2.05,1.54-2.44.11-.05.24-.03.34.04.1.07.15.19.14.31-.08.76-.38,2.2-1.57,2.51h0Z"/><path class="cls-1" d="m11.5,27.78c-.17,0-.34-.07-.47-.19-.17-.16-.25-.41-.2-.64.18-.81.64-2.23,1.73-2.67.22-.09.47-.06.66.08.19.14.29.37.27.6-.21,2.07-1.22,2.64-1.81,2.79-.06.02-.12.02-.18.02Zm1.31-2.9s0,0-.01,0c-.85.35-1.22,1.66-1.34,2.21,0,.01,0,.03.01.04,0,0,.02.01.04,0,0,0,0,0,0,0,.42-.11,1.16-.54,1.33-2.23,0,0,0-.02-.01-.02,0,0-.01,0-.02,0Z"/><path class="cls-2" d="m15.35,33.56c-.05-.09-.14-.15-.23-.17-.1-.02-.2,0-.29.05-.81.56-3.29,2.57-2.22,5.24.11.27.4.42.68.34.31-.08.63-.32.56-.98,0,0-.16-.35-.26-.77-.12-.52.07-1.07.49-1.41.62-.51,1.73-1.57,1.28-2.31h0Z"/><path class="cls-1" d="m13.14,39.37c-.36,0-.7-.22-.84-.57-.49-1.23-.34-2.51.44-3.71.61-.94,1.45-1.61,1.9-1.92.16-.11.36-.14.54-.1.18.04.34.16.44.32.43.7-.04,1.65-1.35,2.72-.32.26-.47.68-.38,1.08.09.37.24.7.24.71.01.03.02.06.03.09.12.99-.52,1.26-.8,1.33-.07.02-.15.03-.22.03Zm1.89-5.67s-.02,0-.02,0c-.74.51-3.08,2.39-2.1,4.86.05.12.18.18.3.15.18-.05.36-.15.32-.59-.05-.12-.17-.42-.26-.78-.15-.64.09-1.32.6-1.73.97-.8,1.43-1.52,1.21-1.89,0,0,0,0,0,0,0-.01-.02-.02-.03-.02,0,0,0,0,0,0Z"/><path class="cls-1" d="m9,23.03c-.28,0-.69-.06-1.04-.36-.28-.23-.39-.61-.3-.95.09-.35.39-.61.74-.67,0,0,0,0,0,0,.06,0,.12-.02.19-.03-.13-.05-.25-.13-.37-.23-.28-.23-.39-.61-.3-.95.09-.34.37-.6.72-.67-.16-.05-.33-.14-.49-.27-.28-.23-.39-.61-.3-.95.09-.35.39-.61.74-.67,0,0,0,0,0,0,.02,0,.05,0,.08-.01-.14-.05-.29-.14-.43-.25-.28-.23-.39-.61-.3-.95.09-.35.39-.61.74-.67,0,0,0,0,0,0,2.23-.31,8.36-.94,17-.18.52.05.93.46.98.98.03.37-.1.59-.22.7-.15.15-.37.23-.64.25.41.13.72.49.76.94.03.37-.1.59-.22.7-.13.13-.31.21-.53.24.44.11.78.49.82.95.03.37-.1.59-.22.7-.18.18-.44.26-.78.25.4.13.69.49.73.93.03.37-.1.59-.22.7-.2.2-.5.28-.91.24-.58,0-15.24.21-15.96.22-.05,0-.17.03-.31.03Zm-.5-1.39c-.12.02-.22.11-.25.23-.03.12,0,.25.1.33,0,0,0,0,0,0,.36.3.85.2.86.2.02,0,.04,0,.06,0,0,0,15.39-.21,15.98-.22.02,0,.04,0,.06,0,.3.03.4-.04.43-.07.05-.05.05-.15.04-.22-.02-.23-.2-.41-.43-.43-8.58-.75-14.64-.12-16.86.18Zm.27-1.88c-.12.02-.22.11-.25.23-.03.12,0,.25.1.33,0,0,0,0,0,0,.36.3.85.2.86.2.02,0,.04,0,.06,0,0,0,15.39-.21,15.98-.22.02,0,.04,0,.06,0,.3.03.4-.04.43-.07.05-.05.05-.15.04-.22-.02-.23-.2-.41-.43-.43-8.58-.75-14.64-.12-16.86.18Zm-.07-1.9c-.12.02-.22.11-.25.23-.03.12,0,.25.1.33,0,0,0,0,0,0,.36.3.86.2.86.2.02,0,.04,0,.06,0,0,0,15.39-.21,15.98-.22.02,0,.04,0,.06,0,.3.03.4-.04.43-.07.05-.05.05-.15.04-.22-.02-.23-.2-.41-.43-.43-8.58-.75-14.64-.12-16.86.18Zm.1-1.89c-.12.02-.22.11-.25.23-.03.12,0,.25.1.33h0c.36.31.86.2.86.2.02,0,.04,0,.06,0,0,0,15.39-.21,15.98-.22.02,0,.04,0,.06,0,.3.03.4-.04.43-.07.05-.05.05-.15.04-.22-.02-.23-.2-.41-.43-.43-8.58-.75-14.64-.12-16.86.18Z"/></g></svg>