<?xml version="1.0" encoding="UTF-8"?><svg id="Calque_2" xmlns="http://www.w3.org/2000/svg" viewBox="0 0 36.39 85.93"><defs><style>.cls-1,.cls-2{fill:#de1a18;}.cls-2{fill-rule:evenodd;}</style></defs><g id="Calque_1-2"><path class="cls-1" d="m18.21,85.93c-4.16,0-9.85-.75-13.34-4.33-2.04-2.09-3.63-8.16-4.61-12.87-.66-3.18-.06-6.45,1.67-9.2,1.33-2.11,3.3-5.53,5.17-9.88,2.09-4.86,3.64-9.88,4.6-14.91.02-.13.05-.25.08-.38.03-.13.06-.3.1-.49.57-2.8,2.29-11.31,2.35-18.93,0-.16.13-.28.28-.28.16,0,.28.13.28.28-.06,7.68-1.79,16.23-2.36,19.04-.04.19-.07.35-.1.49-.03.13-.05.25-.07.38-.97,5.08-2.53,10.14-4.64,15.03-1.49,3.47-3.29,6.91-5.21,9.96-1.66,2.63-2.22,5.75-1.6,8.79,1.74,8.42,3.38,11.49,4.46,12.59,1.85,1.9,5.6,4.16,12.94,4.16s11.02-2.26,12.87-4.16c1.05-1.08,2.68-4.05,4.45-12.08.71-3.2.14-6.5-1.6-9.27-1.95-3.13-3.71-6.52-5.23-10.05-2.1-4.9-3.65-9.93-4.61-14.96-.02-.13-.05-.25-.07-.38-.2-1-.89-4.6-1.46-8.99-.02-.15.09-.3.24-.32.15-.02.3.09.32.24.57,4.38,1.26,7.96,1.46,8.95.03.13.05.25.08.38.95,4.99,2.49,9.99,4.57,14.85,1.5,3.51,3.25,6.87,5.19,9.98,1.82,2.91,2.41,6.35,1.67,9.69-.99,4.5-2.59,10.3-4.6,12.35-1.55,1.59-3.66,2.76-6.28,3.48-2.05.56-4.41.85-7,.85Zm4.01-65.91c-.15,0-.27-.11-.28-.26-.07-.86-.12-1.69-.17-2.49,0-.16.11-.29.27-.3.16,0,.29.11.3.27.04.79.1,1.62.16,2.47.01.16-.1.29-.26.3,0,0-.02,0-.02,0Zm-.2-4.46c-.15,0-.28-.13-.28-.28,0-.85,0-1.51,0-2.31,0-.15.13-.28.28-.28h0c.16,0,.28.13.28.29,0,.8-.01,1.46,0,2.3,0,.16-.12.28-.28.28h0Zm.07-4.72s-.02,0-.02,0c-.16-.01-.27-.15-.26-.3.14-1.7.4-3.16.76-4.33l-4.4.04-4.41-.04c.37,1.17.62,2.63.76,4.33.01.16-.1.29-.26.3-.15.01-.29-.1-.3-.26-.15-1.85-.44-3.38-.86-4.57-.03-.09-.02-.18.04-.26.05-.07.14-.12.23-.12l4.8.04,4.79-.04h0c.09,0,.18.04.23.12.05.07.07.17.04.26-.42,1.19-.71,2.72-.86,4.57-.01.15-.14.26-.28.26Z"/><polygon class="cls-2" points="21.53 .28 14.9 .28 15.7 5.83 20.64 5.86 21.53 .28 21.53 .28"/><path class="cls-1" d="m20.64,6.14h0l-4.94-.03c-.14,0-.26-.1-.28-.24l-.8-5.55c-.01-.08.01-.16.07-.22.05-.06.13-.1.21-.1h6.64c.08,0,.16.04.21.1.05.06.08.15.06.23l-.9,5.58c-.02.14-.14.24-.28.24Zm-4.69-.59l4.45.02.81-5.01h-5.98l.72,4.99Z"/><path class="cls-2" d="m9.56,57.86s.23-2.56-2.24-2.13c0,0-2.2.59-4.3,6.72-.04.12-.08.24-.11.36-.18.82-.7,3.75.03,8.77.02.13.04.25.07.38.32,1.37,2.49,9.73,8.16,11.23.03,0,.06.02.1.03.91.26,10.51,2.89,17.51-1.64.82-.53,1.48-1.26,1.92-2.13.89-1.79,2.49-5.4,3.14-9.51.45-2.82.12-5.72-.97-8.36-.62-1.51-1.45-3.32-2.41-4.91,0,0-5.27-8.85-5.35-10.87,0,0,0,0,0-.01,0-.12-.09-5.26-2.27-6.4-.09-.05-.18-.08-.28-.11-.52-.13-2.92-.6-4.18,1.22-.12.18-.22.37-.28.57-.26.86-.81,3.54,1.34,6.46.39.53.86.99,1.4,1.36,1.56,1.09,5.61,4.38,3.32,7.78,0,0-1.68,2.12-4.15,1.79-.95-.13-1.76-.78-2.09-1.68-.26-.72-.74-1.67-1.58-2.29-.33-.25-.74-.36-1.15-.33-.94.09-2.72.5-2.63,2.42.1,2.1,3.15,2.94,4.06,4.25.29.42.29.98,0,1.41-.27.39-.8.99-1.7,1.07-.4.04-.77-.23-.85-.62-.17-.79-.7-2.11-2.32-2.03,0,0-1.62.27-1.6,1.41,0,.28.16.53.4.67.34.2.93.56,1.47.97.36.27.58.7.59,1.15,0,.45-.19.89-.54,1.18-.64.53-1.52.97-2.47.62,0,0-2.24-.26-2.53-2.35-.08-.59.1-1.19.51-1.63.73-.8,2.02-2.56,1.96-4.81h0Z"/><path class="cls-1" d="m18.73,84.5c-.33,0-.67,0-1.01-.02-3.41-.12-6.05-.85-6.54-.99-.03,0-.06-.02-.09-.03-2.47-.66-4.57-2.61-6.26-5.81-1.3-2.47-1.94-4.93-2.1-5.63-.03-.14-.05-.27-.07-.4-.72-4.9-.26-7.84-.03-8.87,0,0,0,0,0,0,.03-.13.07-.26.11-.38,2.13-6.2,4.4-6.87,4.5-6.9,0,0,.02,0,.03,0,.81-.14,1.45,0,1.9.42.73.68.68,1.83.67,2,.06,2.33-1.25,4.13-2.03,5-.35.38-.51.89-.44,1.4.26,1.85,2.27,2.1,2.29,2.11.02,0,.04,0,.06.02.69.25,1.42.06,2.19-.57.29-.24.45-.58.44-.95,0-.37-.18-.71-.48-.94-.51-.39-1.07-.73-1.45-.95-.32-.19-.53-.53-.54-.91,0-.58.32-1.06.95-1.39.44-.23.87-.3.89-.3.01,0,.02,0,.03,0,1.34-.07,2.29.75,2.61,2.25.05.25.29.43.55.4.75-.07,1.22-.56,1.49-.95.22-.33.22-.76,0-1.09-.3-.44-.91-.85-1.56-1.28-1.16-.78-2.48-1.65-2.55-3.12-.07-1.55.98-2.54,2.89-2.71.48-.04.96.1,1.35.38.9.66,1.41,1.68,1.67,2.42.29.81,1.01,1.38,1.86,1.5,2.21.3,3.78-1.55,3.89-1.68.91-1.36.83-2.85-.23-4.44-.9-1.35-2.29-2.43-3.03-2.95-.56-.39-1.06-.87-1.46-1.43-2.25-3.05-1.62-5.91-1.38-6.71.07-.23.18-.45.32-.65.57-.83,1.46-1.33,2.57-1.45.86-.1,1.62.06,1.91.13.12.03.24.08.34.13.98.52,1.69,1.79,2.09,3.78.29,1.43.32,2.72.32,2.87h0c.07,1.6,3.86,8.3,5.31,10.74.81,1.34,1.63,3.01,2.43,4.95,1.11,2.69,1.45,5.64.98,8.51-.66,4.13-2.27,7.78-3.17,9.59-.47.91-1.16,1.69-2.02,2.24-2.75,1.78-6.18,2.68-10.2,2.68ZM3.18,62.88c-.22,1.01-.67,3.86.04,8.66.02.12.04.24.07.36.16.68.78,3.08,2.05,5.49,1.61,3.05,3.6,4.91,5.91,5.53.04,0,.07.02.11.03.48.14,3.06.84,6.4.97,4.33.16,7.99-.71,10.88-2.57.78-.5,1.41-1.2,1.83-2.02.88-1.78,2.47-5.37,3.12-9.42.45-2.77.12-5.61-.95-8.21-.79-1.91-1.59-3.55-2.39-4.87-.22-.37-5.3-8.94-5.39-11v-.02c-.03-1.76-.51-5.31-2.12-6.15-.07-.04-.14-.07-.22-.09-.44-.11-2.71-.56-3.87,1.1-.11.15-.19.32-.24.5-.22.74-.8,3.37,1.29,6.21.37.5.82.94,1.33,1.3.78.54,2.23,1.67,3.18,3.1,1.18,1.77,1.26,3.53.22,5.07,0,0,0,.01-.01.02-.07.08-1.56,1.93-3.84,1.93-.18,0-.37-.01-.57-.04-1.06-.14-1.95-.86-2.31-1.86-.24-.66-.69-1.58-1.48-2.16-.28-.21-.62-.3-.96-.27-2.03.19-2.41,1.26-2.37,2.12.06,1.18,1.2,1.94,2.3,2.68.69.46,1.34.9,1.71,1.43.36.52.36,1.2.01,1.72-.27.41-.88,1.1-1.9,1.2-.55.05-1.04-.31-1.15-.84-.19-.86-.69-1.87-2.01-1.81-.14.03-1.37.29-1.35,1.12,0,.18.1.34.25.43.39.23.97.59,1.5.99.43.33.69.83.7,1.37.01.54-.22,1.05-.64,1.4-.91.75-1.85.98-2.71.68-.31-.05-2.45-.46-2.74-2.58-.1-.68.12-1.36.58-1.86.73-.8,1.95-2.47,1.89-4.62,0-.01,0-.02,0-.03,0-.03.08-1.03-.49-1.55-.31-.29-.79-.38-1.4-.28-.14.05-2.16.87-4.1,6.54-.04.11-.07.22-.1.33Z"/><path class="cls-2" d="m10.08,54.15s-1.83-4.53,1.73-6.38c.17-.09.36-.15.56-.18.68-.09,2.33-.14,2.37,1.43,0,0-.08,1.02-1.33,1.97-.2.15-.41.27-.64.35-.66.25-2.3,1.04-2.68,2.81h0Z"/><path class="cls-1" d="m10.08,54.43c-.11,0-.22-.07-.26-.18-.02-.05-.48-1.2-.49-2.6-.02-1.9.8-3.33,2.35-4.14.2-.11.42-.17.65-.21.53-.07,1.51-.1,2.14.43.35.3.54.73.55,1.27,0,0,0,.02,0,.03,0,.05-.11,1.16-1.44,2.17-.22.17-.46.3-.72.39-.63.24-2.15.96-2.5,2.6-.03.12-.13.21-.25.22,0,0-.02,0-.02,0Zm2.83-6.6c-.2,0-.38.02-.5.03-.16.02-.32.07-.46.15-1.37.71-2.06,1.94-2.05,3.63,0,.61.1,1.17.21,1.59.65-1.32,1.96-1.94,2.56-2.16.21-.07.4-.18.57-.31,1.06-.81,1.21-1.64,1.22-1.76-.01-.37-.13-.64-.35-.84-.32-.27-.8-.34-1.2-.34Z"/><path class="cls-2" d="m19.32,37.61s-4.78-2.09-3.91-5.47c.08-.3.23-.57.45-.79.51-.5,1.55-1.23,2.7-.24,0,0,.66.68.63,1.95,0,.33-.08.65-.22.95-.28.61-.78,2.13.34,3.61h0Z"/><path class="cls-1" d="m19.32,37.89s-.08,0-.11-.02c-.05-.02-1.25-.55-2.35-1.51-1.51-1.31-2.1-2.79-1.71-4.29.09-.35.27-.66.52-.92,1-.99,2.12-1.08,3.09-.26,0,0,.01.01.02.02.03.03.74.78.71,2.15,0,.37-.09.73-.25,1.06-.25.55-.72,1.96.31,3.32.08.1.08.24,0,.34-.05.07-.14.11-.22.11Zm-1.95-6.99c-.38,0-.82.17-1.31.65-.18.18-.31.41-.38.66-.58,2.26,1.63,3.94,2.91,4.7-.52-1.29-.11-2.5.13-3.02.12-.26.19-.55.19-.84.02-1.06-.48-1.66-.55-1.74-.26-.22-.6-.41-1-.41Z"/><path class="cls-1" d="m20.61,26.74c-1.78,0-3.48-1.48-3.94-3.53-.27-1.2-.07-2.41.54-3.33.14-.2.29-.38.46-.55-.14-.8-.07-2.16.18-2.78-.34-.14-.67-.3-.98-.5-1.1-.1-1.82-.55-2.58-1.03-.03-.02-.05-.04-.07-.06-.45-.5-.77-.93-.52-1.51h0c.03-.08.07-.14.12-.19-.06-.01-.11-.03-.17-.04-.04-.01-.08-.03-.11-.05-.72-.5-.95-.87-.95-1.54,0-.33.12-.65.34-.88.21-.23.49-.36.79-.38.52-.18,1.07-.03,1.43.36.62-.25,1.47-.34,2.41.27.91-.55,1.85-.6,3.02-.16.68-.5,1.7-.71,2.31-.45.8.33.95.83.96,1.11,0,0,0,.01,0,.02h0c0,.78-.49,1.09-1.28,1.32-.64.52-1.6.69-2.95.5-.9.33-2.02.34-3.05.03-.08.02-.16.04-.25.06.02.03.03.05.05.08.87,0,1.62.31,2.18.93,1.03-.15,1.93.09,2.89.79.5-.14.81-.19,1.14-.19h0c.44,0,.81.27.97.67.19.48.15,1.02-.11,1.37-.19.25-.47.38-.79.37-.76.21-1.71.04-2.91-.5-.33,0-.66-.05-1-.12.28.64.76,1.19,1.18,1.62,1.76.03,3.42,1.5,3.88,3.53.27,1.2.07,2.41-.54,3.33-.5.75-1.25,1.25-2.11,1.39-.18.03-.35.04-.53.04Zm-.75-7.73c-.15,0-.29.01-.44.04h0c-.7.12-1.32.53-1.73,1.15-.53.79-.7,1.84-.46,2.89.4,1.79,1.87,3.09,3.38,3.09.15,0,.29-.01.44-.04.7-.12,1.32-.53,1.73-1.15.53-.79.7-1.84.46-2.89-.4-1.79-1.87-3.09-3.38-3.09Zm-1.59-1.85c-.09.46-.14,1.16-.08,1.77.31-.2.65-.34,1.02-.41-.34-.39-.69-.84-.94-1.36Zm1.1,1.61h0,0Zm.78-2.25c.66.28,1.22.43,1.7.45-.28-.23-.45-.48-.55-.68-.13-.26-.18-.48-.2-.61-.79-.57-1.5-.79-2.32-.7.12.32.45.92,1.31,1.49.02.01.04.03.06.05Zm1.54-.77c.08.29.32.82,1.11,1.13.08-.02.14-.06.19-.13.14-.19.16-.53.04-.83-.07-.19-.25-.31-.45-.31h0c-.26,0-.51.04-.89.14Zm-4.47-.14c.54.34,1.17.59,1.79.7-.65-.66-.81-1.27-.85-1.46-.49-.56-1.15-.82-1.94-.78-.02.31.08.89.91,1.44.04.02.07.06.09.09Zm-2.61-1.04c.54.34.98.59,1.47.75-.65-.84-.36-1.63-.35-1.67,0-.01,0-.02.01-.03-.07-.06-.16-.1-.26-.12-.28,0-.56-.03-.84-.07-.03,0-.06.02-.09.03h-.02c-.18.08-.29.13-.33.21h0c-.09.21-.08.36.4.89Zm2.16-1.72c.69.21,1.42.25,2.07.13-1.03-.55-1.45-1.29-1.54-1.46-.69-.47-1.41-.54-2.13-.18.09.38.41,1.1,1.48,1.45.05.01.08.04.11.07Zm-1.59.05c.13,0,.25.02.37.04.04,0,.09,0,.13,0-1.07-.71-1.12-1.78-1.12-1.83,0-.04,0-.08.02-.11-.23-.16-.51-.16-.73-.08-.03.01-.07.02-.1.02-.16,0-.31.07-.43.2-.12.13-.19.32-.19.5,0,.39.07.63.68,1.06.26.07.54.13.82.17.18-.03.37-.02.55.03Zm4.7-.08c.79.09,1.42.04,1.88-.15-.87-.32-1.27-1.04-1.38-1.29-.98-.38-1.74-.36-2.48.06.21.32.77.97,1.9,1.34.03,0,.05.02.08.04Zm-6.04-.1s0,0,0,0c0,0,0,0,0,0Zm7.11-1.46c.17.3.62.92,1.55.99.02,0,.03,0,.05,0,.61-.2.72-.39.73-.73-.03-.31-.35-.51-.62-.62-.37-.16-1.15-.03-1.7.34Z"/><polygon class="cls-2" points="19.68 20.37 20.37 21.35 21.07 20.86 21.14 21.62 22.45 21.36 21.56 22.23 22.31 22.63 21.48 22.93 22.17 23.91 20.93 23.47 20.7 24.21 20.12 23.63 19.23 24.5 19.35 23.36 18.46 23.4 18.93 22.75 17.69 22.31 19 22.05 18.68 21.34 19.56 21.51 19.68 20.37 19.68 20.37"/><path class="cls-1" d="m19.23,24.64s-.04,0-.06-.01c-.05-.03-.08-.08-.08-.14l.11-.98-.73.04c-.06,0-.11-.03-.13-.07s-.02-.11,0-.15l.36-.5-1.06-.38c-.06-.02-.1-.08-.09-.14s.05-.12.11-.13l1.14-.23-.25-.55s-.01-.1.02-.15c.03-.04.09-.06.14-.05l.72.14.11-.99c0-.06.05-.11.11-.12.06-.01.12,0,.15.06l.61.86.58-.4s.09-.03.14-.01c.05.02.08.07.08.12l.05.6,1.16-.23c.06-.01.12.02.15.07.03.06.02.12-.03.17l-.76.74.58.32s.08.08.07.13c0,.06-.04.1-.09.12l-.66.24.58.83c.04.05.03.12,0,.17-.04.05-.1.07-.16.05l-1.1-.39-.19.6s-.05.08-.1.09c-.05.01-.1,0-.13-.04l-.48-.48-.79.77s-.06.04-.1.04Zm.13-1.42s.08.02.1.04c.03.03.04.07.04.11l-.08.75.61-.59c.05-.05.14-.05.2,0l.42.41.16-.52s.04-.07.07-.08c.03-.02.07-.02.11,0l.82.29-.43-.62s-.03-.08-.02-.12.05-.08.09-.09l.53-.19-.47-.26s-.07-.06-.07-.1c0-.04,0-.09.04-.12l.55-.54-.85.17s-.08,0-.11-.03c-.03-.02-.05-.06-.06-.1l-.05-.52-.5.35c-.06.04-.15.03-.2-.03l-.47-.67-.09.77s-.02.07-.06.1-.07.03-.11.02l-.6-.12.21.46s.02.08,0,.12-.06.07-.1.07l-.82.16.76.27s.07.05.09.09c.01.04,0,.09-.02.12l-.3.41.6-.03s0,0,0,0Z"/></g></svg>